<svg width="800" height="800" viewBox="0 0 800 800" fill="none" xmlns="http://www.w3.org/2000/svg" xmlns:xlink="http://www.w3.org/1999/xlink">
<path d="M399.999,75L400.013,69L400.009,69L399.999,75ZM212.333,141.667L208.091,145.909C210.268,148.087 213.74,148.262 216.126,146.316L212.333,141.667ZM179,108.333L174.757,112.576L179,108.333ZM139.833,92.11L139.833,98.11L139.833,92.11ZM84.443,147.5L78.443,147.5L84.443,147.5ZM100.667,186.667L96.424,190.909L96.442,190.927L100.667,186.667ZM141.333,227L146.575,229.919C147.884,227.569 147.469,224.634 145.559,222.74L141.333,227ZM104,370.334L98,370.324L98,370.334L104,370.334ZM104,518L98,518C98,521.314 100.686,524 104,524L104,518ZM695.499,518L695.499,524C698.813,524 701.499,521.314 701.499,518L695.499,518ZM695.499,370.5L689.499,370.496L689.499,370.5L695.499,370.5ZM658.499,227.167L654.231,222.951C652.359,224.845 651.961,227.746 653.251,230.075L658.499,227.167ZM698.333,186.833L694.161,182.521C694.129,182.553 694.097,182.585 694.065,182.617L698.333,186.833ZM714.935,147.667L708.935,147.667L714.935,147.667ZM698.333,108.5L694.083,112.734C694.109,112.761 694.135,112.786 694.161,112.812L698.333,108.5ZM659.249,92.267L659.249,98.267L659.249,92.267ZM620.167,108.5L624.409,112.743L624.417,112.734L620.167,108.5ZM586.833,141.833L583.039,146.481C585.425,148.429 588.897,148.254 591.075,146.076L586.833,141.833ZM270,259.667L270.072,265.666L270.091,265.666L270,259.667ZM326.167,314.334L332.167,314.278L332.165,314.262L326.167,314.334ZM271.5,370.5L271.5,376.5C271.536,376.5 271.572,376.5 271.608,376.5L271.5,370.5ZM270,370.5L269.91,376.5C269.94,376.5 269.97,376.5 270,376.5L270,370.5ZM215.333,314.334L221.333,314.406L221.333,314.406L215.333,314.334ZM529.999,259.667L530.329,253.676C528.683,253.585 527.071,254.176 525.875,255.309C524.677,256.443 523.999,258.018 523.999,259.667L529.999,259.667ZM582.459,315.084L576.459,315.084L582.459,315.084ZM529.999,370.5L530.075,376.5C530.159,376.498 530.243,376.496 530.329,376.492L529.999,370.5ZM473.833,316.668L467.833,316.668C467.833,316.726 467.833,316.786 467.835,316.846L473.833,316.668ZM473.833,315.168L467.833,315.078C467.833,315.108 467.833,315.138 467.833,315.168L473.833,315.168ZM529.999,260.5L529.927,266.5C531.531,266.519 533.075,265.895 534.217,264.768C535.357,263.641 535.999,262.104 535.999,260.5L529.999,260.5ZM104.5,547.668L104.5,541.668C101.186,541.668 98.5,544.354 98.5,547.668L104.5,547.668ZM104.5,725L98.5,725C98.5,728.314 101.186,731 104.5,731L104.5,725ZM281.833,725L281.833,731C285.147,731 287.833,728.314 287.833,725L281.833,725ZM281.833,547.668L287.833,547.668C287.833,544.354 285.147,541.668 281.833,541.668L281.833,547.668ZM393.999,636.334C393.999,639.648 396.687,642.334 399.999,642.334C403.313,642.334 405.999,639.648 405.999,636.334L393.999,636.334ZM399.999,547.668L405.999,547.668C405.999,544.354 403.313,541.668 399.999,541.668L399.999,547.668ZM311.333,541.668C308.019,541.668 305.333,544.354 305.333,547.668C305.333,550.98 308.019,553.668 311.333,553.668L311.333,541.668ZM488.667,553.668C491.981,553.668 494.667,550.98 494.667,547.668C494.667,544.354 491.981,541.668 488.667,541.668L488.667,553.668ZM429.499,547.668L429.499,541.668C426.187,541.668 423.499,544.354 423.499,547.668L429.499,547.668ZM423.499,606.834C423.499,610.148 426.187,612.834 429.499,612.834C432.813,612.834 435.499,610.148 435.499,606.834L423.499,606.834ZM459.167,719C455.853,719 453.167,721.686 453.167,725C453.167,728.314 455.853,731 459.167,731L459.167,719ZM488.667,725L488.667,731C491.981,731 494.667,728.314 494.667,725L488.667,725ZM488.667,666.668L494.667,666.668C494.667,663.354 491.981,660.668 488.667,660.668L488.667,666.668ZM429.499,666.668L423.499,666.668C423.499,669.98 426.187,672.668 429.499,672.668L429.499,666.668ZM429.499,636.334L429.499,630.334C426.187,630.334 423.499,633.02 423.499,636.334L429.499,636.334ZM488.667,636.334L488.667,642.334C491.981,642.334 494.667,639.648 494.667,636.334L488.667,636.334ZM488.667,606.834L494.667,606.834C494.667,603.52 491.981,600.834 488.667,600.834L488.667,606.834ZM459.167,606.834L453.167,606.834C453.167,610.148 455.853,612.834 459.167,612.834L459.167,606.834ZM459.167,579L459.167,573C455.853,573 453.167,575.686 453.167,579L459.167,579ZM488.667,585C491.981,585 494.667,582.314 494.667,579C494.667,575.686 491.981,573 488.667,573L488.667,585ZM518.167,547.668L518.167,541.668C514.853,541.668 512.167,544.354 512.167,547.668L518.167,547.668ZM518.167,725L512.167,725C512.167,728.314 514.853,731 518.167,731L518.167,725ZM695.499,725L695.499,731C698.813,731 701.499,728.314 701.499,725L695.499,725ZM695.499,547.668L701.499,547.668C701.499,544.354 698.813,541.668 695.499,541.668L695.499,547.668ZM311.333,606.834L311.333,600.834C308.019,600.834 305.333,603.52 305.333,606.834L311.333,606.834ZM311.333,636.334L305.333,636.334C305.333,639.648 308.019,642.334 311.333,642.334L311.333,636.334ZM340.833,636.334L340.833,642.334C344.147,642.334 346.833,639.648 346.833,636.334L340.833,636.334ZM340.833,606.834L346.833,606.834C346.833,603.52 344.147,600.834 340.833,600.834L340.833,606.834ZM399.999,672.668C403.313,672.668 405.999,669.98 405.999,666.668C405.999,663.354 403.313,660.668 399.999,660.668L399.999,672.668ZM311.333,666.668L311.333,660.668C308.019,660.668 305.333,663.354 305.333,666.668L311.333,666.668ZM305.333,725C305.333,728.314 308.019,731 311.333,731C314.647,731 317.333,728.314 317.333,725L305.333,725ZM429.499,731C432.813,731 435.499,728.314 435.499,725C435.499,721.686 432.813,719 429.499,719L429.499,731ZM340.833,719C337.519,719 334.833,721.686 334.833,725C334.833,728.314 337.519,731 340.833,731L340.833,719ZM400.009,69C330.249,68.891 262.599,92.922 208.541,137.017L216.126,146.316C268.037,103.972 332.999,80.895 399.991,81L400.009,69ZM216.576,137.424L183.243,104.091L174.757,112.576L208.091,145.909L216.576,137.424ZM183.243,104.091C177.542,98.39 170.775,93.868 163.326,90.783L158.734,101.87C164.726,104.352 170.171,107.99 174.757,112.576L183.243,104.091ZM163.326,90.783C155.878,87.698 147.895,86.11 139.833,86.11L139.833,98.11C146.319,98.11 152.742,99.387 158.734,101.87L163.326,90.783ZM139.833,86.11C123.552,86.11 107.937,92.578 96.424,104.091L104.909,112.576C114.172,103.314 126.734,98.11 139.833,98.11L139.833,86.11ZM96.424,104.091C84.911,115.604 78.443,131.218 78.443,147.5L90.443,147.5C90.443,134.401 95.647,121.838 104.909,112.576L96.424,104.091ZM78.443,147.5C78.443,163.782 84.911,179.396 96.424,190.909L104.909,182.424C95.647,173.162 90.443,160.599 90.443,147.5L78.443,147.5ZM96.442,190.927L137.108,231.26L145.559,222.74L104.892,182.407L96.442,190.927ZM136.091,224.081C111.185,268.804 98.076,319.134 98,370.324L110,370.342C110.073,321.188 122.66,272.863 146.575,229.919L136.091,224.081ZM98,370.334L98,518L110,518L110,370.334L98,370.334ZM104,524L695.499,524L695.499,512L104,512L104,524ZM701.499,518L701.499,370.5L689.499,370.5L689.499,518L701.499,518ZM701.499,370.506C701.543,319.342 688.551,269.009 663.747,224.258L653.251,230.075C677.067,273.043 689.541,321.37 689.499,370.496L701.499,370.506ZM662.769,231.383L702.603,191.049L694.065,182.617L654.231,222.951L662.769,231.383ZM702.505,191.145C708.335,185.504 712.971,178.748 716.137,171.278L705.089,166.595C702.551,172.583 698.835,177.999 694.161,182.521L702.505,191.145ZM716.137,171.278C719.303,163.809 720.935,155.779 720.935,147.667L708.935,147.667C708.935,154.17 707.627,160.607 705.089,166.595L716.137,171.278ZM720.935,147.667C720.935,139.554 719.303,131.524 716.137,124.055L705.089,128.738C707.627,134.726 708.935,141.163 708.935,147.667L720.935,147.667ZM716.137,124.055C712.971,116.586 708.335,109.829 702.505,104.188L694.161,112.812C698.835,117.334 702.551,122.75 705.089,128.738L716.137,124.055ZM702.583,104.265C696.901,98.561 690.147,94.034 682.711,90.946L678.109,102.028C684.085,104.511 689.515,108.149 694.083,112.734L702.583,104.265ZM682.711,90.946C675.275,87.857 667.303,86.267 659.249,86.267L659.249,98.267C665.723,98.267 672.131,99.545 678.109,102.028L682.711,90.946ZM659.249,86.267C651.197,86.267 643.225,87.857 635.789,90.946L640.391,102.028C646.369,99.545 652.777,98.267 659.249,98.267L659.249,86.267ZM635.789,90.946C628.351,94.034 621.599,98.561 615.915,104.265L624.417,112.734C628.985,108.149 634.413,104.511 640.391,102.028L635.789,90.946ZM615.923,104.257L582.591,137.591L591.075,146.076L624.409,112.743L615.923,104.257ZM590.627,137.186C536.807,93.24 469.497,69.162 400.013,69L399.985,81C466.713,81.156 531.353,104.278 583.039,146.481L590.627,137.186ZM270.091,265.666C276.582,265.568 283.029,266.752 289.061,269.15L293.493,257.998C285.993,255.017 277.979,253.545 269.909,253.667L270.091,265.666ZM289.061,269.15C295.093,271.548 300.593,275.114 305.245,279.642L313.615,271.041C307.831,265.412 300.993,260.98 293.493,257.998L289.061,269.15ZM305.245,279.642C309.897,284.17 313.611,289.57 316.171,295.536L327.199,290.804C324.015,283.386 319.399,276.672 313.615,271.041L305.245,279.642ZM316.171,295.536C318.731,301.502 320.089,307.914 320.167,314.406L332.165,314.262C332.069,306.192 330.381,298.22 327.199,290.804L316.171,295.536ZM320.167,314.388C320.287,327.484 315.229,340.098 306.093,349.484L314.693,357.854C326.035,346.2 332.315,330.54 332.167,314.278L320.167,314.388ZM306.093,349.484C296.959,358.87 284.487,364.266 271.393,364.502L271.608,376.5C287.865,376.208 303.351,369.506 314.693,357.854L306.093,349.484ZM271.5,364.5L270,364.5L270,376.5L271.5,376.5L271.5,364.5ZM270.09,364.502C256.987,364.306 244.497,358.922 235.357,349.532L226.758,357.902C238.113,369.568 253.632,376.256 269.91,376.5L270.09,364.502ZM235.357,349.532C226.217,340.14 221.174,327.51 221.333,314.406L209.334,314.26C209.136,330.54 215.402,346.234 226.758,357.902L235.357,349.532ZM221.333,314.406C221.487,301.528 226.672,289.22 235.779,280.112L227.294,271.627C215.971,282.95 209.526,298.25 209.334,314.262L221.333,314.406ZM235.779,280.112C244.886,271.005 257.194,265.82 270.072,265.666L269.928,253.667C253.917,253.859 238.616,260.304 227.294,271.627L235.779,280.112ZM529.671,265.658C542.311,266.351 554.205,271.861 562.907,281.054L571.621,272.804C560.809,261.382 546.033,254.537 530.329,253.676L529.671,265.658ZM562.907,281.054C571.609,290.248 576.459,302.424 576.459,315.084L588.459,315.084C588.459,299.356 582.433,284.226 571.621,272.804L562.907,281.054ZM576.459,315.084C576.459,327.742 571.609,339.92 562.907,349.114L571.621,357.362C582.433,345.942 588.459,330.812 588.459,315.084L576.459,315.084ZM562.907,349.114C554.205,358.306 542.311,363.816 529.671,364.51L530.329,376.492C546.033,375.63 560.809,368.784 571.621,357.362L562.907,349.114ZM529.925,364.5C516.947,364.662 504.427,359.722 495.057,350.74L486.753,359.404C498.395,370.562 513.951,376.7 530.075,376.5L529.925,364.5ZM495.057,350.74C485.687,341.76 480.219,329.46 479.831,316.488L467.835,316.846C468.319,332.964 475.113,348.246 486.753,359.404L495.057,350.74ZM479.833,316.668L479.833,315.168L467.833,315.168L467.833,316.668L479.833,316.668ZM479.833,315.256C480.029,302.154 485.411,289.664 494.801,280.524L486.433,271.924C474.765,283.28 468.077,298.798 467.833,315.078L479.833,315.256ZM494.801,280.524C504.193,271.384 516.823,266.341 529.927,266.5L530.073,254.5C513.793,254.303 498.099,260.569 486.433,271.924L494.801,280.524ZM535.999,260.5L535.999,259.667L523.999,259.667L523.999,260.5L535.999,260.5ZM98.5,547.668L98.5,725L110.5,725L110.5,547.668L98.5,547.668ZM104.5,731L281.833,731L281.833,719L104.5,719L104.5,731ZM287.833,725L287.833,547.668L275.833,547.668L275.833,725L287.833,725ZM281.833,541.668L104.5,541.668L104.5,553.668L281.833,553.668L281.833,541.668ZM405.999,636.334L405.999,547.668L393.999,547.668L393.999,636.334L405.999,636.334ZM399.999,541.668L311.333,541.668L311.333,553.668L399.999,553.668L399.999,541.668ZM488.667,541.668L429.499,541.668L429.499,553.668L488.667,553.668L488.667,541.668ZM423.499,547.668L423.499,606.834L435.499,606.834L435.499,547.668L423.499,547.668ZM459.167,731L488.667,731L488.667,719L459.167,719L459.167,731ZM494.667,725L494.667,666.668L482.667,666.668L482.667,725L494.667,725ZM488.667,660.668L429.499,660.668L429.499,672.668L488.667,672.668L488.667,660.668ZM435.499,666.668L435.499,636.334L423.499,636.334L423.499,666.668L435.499,666.668ZM429.499,642.334L488.667,642.334L488.667,630.334L429.499,630.334L429.499,642.334ZM494.667,636.334L494.667,606.834L482.667,606.834L482.667,636.334L494.667,636.334ZM488.667,600.834L459.167,600.834L459.167,612.834L488.667,612.834L488.667,600.834ZM465.167,606.834L465.167,579L453.167,579L453.167,606.834L465.167,606.834ZM459.167,585L488.667,585L488.667,573L459.167,573L459.167,585ZM512.167,547.668L512.167,725L524.167,725L524.167,547.668L512.167,547.668ZM518.167,731L695.499,731L695.499,719L518.167,719L518.167,731ZM701.499,725L701.499,547.668L689.499,547.668L689.499,725L701.499,725ZM695.499,541.668L518.167,541.668L518.167,553.668L695.499,553.668L695.499,541.668ZM305.333,606.834L305.333,636.334L317.333,636.334L317.333,606.834L305.333,606.834ZM311.333,642.334L340.833,642.334L340.833,630.334L311.333,630.334L311.333,642.334ZM346.833,636.334L346.833,606.834L334.833,606.834L334.833,636.334L346.833,636.334ZM340.833,600.834L311.333,600.834L311.333,612.834L340.833,612.834L340.833,600.834ZM399.999,660.668L311.333,660.668L311.333,672.668L399.999,672.668L399.999,660.668ZM305.333,666.668L305.333,725L317.333,725L317.333,666.668L305.333,666.668ZM429.499,719L340.833,719L340.833,731L429.499,731L429.499,719Z" fill="#333333"/>
<path d="M311.333,564C303.049,564 296.333,570.716 296.333,579C296.333,587.284 303.049,594 311.333,594L311.333,564ZM369.499,579L384.499,579C384.499,570.716 377.783,564 369.499,564L369.499,579ZM354.499,636.333C354.499,644.618 361.215,651.333 369.499,651.333C377.783,651.333 384.499,644.618 384.499,636.333L354.499,636.333ZM340.333,680.5C332.049,680.5 325.333,687.216 325.333,695.5C325.333,703.784 332.049,710.5 340.333,710.5L340.333,680.5ZM462.999,710.5C471.283,710.5 477.999,703.784 477.999,695.5C477.999,687.216 471.283,680.5 462.999,680.5L462.999,710.5ZM135.833,579L135.833,564C127.549,564 120.833,570.716 120.833,579L135.833,579ZM250.666,579L265.666,579C265.666,570.716 258.951,564 250.666,564L250.666,579ZM250.666,693.833L250.666,708.833C258.951,708.833 265.666,702.118 265.666,693.833L250.666,693.833ZM135.833,693.833L120.833,693.833C120.833,702.118 127.549,708.833 135.833,708.833L135.833,693.833ZM549.499,579L549.499,564C541.215,564 534.499,570.716 534.499,579L549.499,579ZM664.333,579L679.333,579C679.333,570.716 672.617,564 664.333,564L664.333,579ZM664.333,693.833L664.333,708.833C672.617,708.833 679.333,702.118 679.333,693.833L664.333,693.833ZM549.499,693.833L534.499,693.833C534.499,702.118 541.215,708.833 549.499,708.833L549.499,693.833ZM311.333,594L369.499,594L369.499,564L311.333,564L311.333,594ZM354.499,579L354.499,636.333L384.499,636.333L384.499,579L354.499,579ZM340.333,710.5L462.999,710.5L462.999,680.5L340.333,680.5L340.333,710.5ZM135.833,594L250.666,594L250.666,564L135.833,564L135.833,594ZM235.666,579L235.666,693.833L265.666,693.833L265.666,579L235.666,579ZM250.666,678.833L135.833,678.833L135.833,708.833L250.666,708.833L250.666,678.833ZM150.833,693.833L150.833,579L120.833,579L120.833,693.833L150.833,693.833ZM549.499,594L664.333,594L664.333,564L549.499,564L549.499,594ZM649.333,579L649.333,693.833L679.333,693.833L679.333,579L649.333,579ZM664.333,678.833L549.499,678.833L549.499,708.833L664.333,708.833L664.333,678.833ZM564.499,693.833L564.499,579L534.499,579L534.499,693.833L564.499,693.833Z" fill="#FFFFFF"/>
</svg>
