<svg width="840" height="800" viewBox="0 0 840 800" fill="none" xmlns="http://www.w3.org/2000/svg" xmlns:xlink="http://www.w3.org/1999/xlink">
<path d="M16,25C16,18.37 18.634,12.011 23.322,7.322C28.011,2.634 34.37,0 41,0L191,0C197.63,0 203.989,2.634 208.678,7.322C213.366,12.011 216,18.37 216,25C216,31.63 213.366,37.989 208.678,42.678C203.989,47.366 197.63,50 191,50L108,50C84.804,50 66,68.804 66,92L66,175C66,181.63 63.366,187.989 58.678,192.678C53.989,197.366 47.63,200 41,200C34.37,200 28.011,197.366 23.322,192.678C18.634,187.989 16,181.63 16,175L16,25ZM616,25C616,18.37 618.634,12.011 623.322,7.322C628.01,2.634 634.37,0 641,0L791,0C797.63,0 803.99,2.634 808.678,7.322C813.366,12.011 816,18.37 816,25L816,175C816,181.63 813.366,187.989 808.678,192.678C803.99,197.366 797.63,200 791,200C784.37,200 778.01,197.366 773.322,192.678C768.634,187.989 766,181.63 766,175L766,92C766,68.804 747.196,50 724,50L641,50C634.37,50 628.01,47.366 623.322,42.678C618.634,37.989 616,31.63 616,25ZM41,600C47.63,600 53.989,602.634 58.678,607.322C63.366,612.01 66,618.37 66,625L66,708C66,731.196 84.804,750 108,750L191,750C197.63,750 203.989,752.634 208.678,757.322C213.366,762.01 216,768.37 216,775C216,781.63 213.366,787.99 208.678,792.678C203.989,797.366 197.63,800 191,800L41,800C34.37,800 28.011,797.366 23.322,792.678C18.634,787.99 16,781.63 16,775L16,625C16,618.37 18.634,612.01 23.322,607.322C28.011,602.634 34.37,600 41,600ZM791,600C797.63,600 803.99,602.634 808.678,607.322C813.366,612.01 816,618.37 816,625L816,775C816,781.63 813.366,787.99 808.678,792.678C803.99,797.366 797.63,800 791,800L641,800C634.37,800 628.01,797.366 623.322,792.678C618.634,787.99 616,781.63 616,775C616,768.37 618.634,762.01 623.322,757.322C628.01,752.634 634.37,750 641,750L724,750C747.196,750 766,731.196 766,708L766,625C766,618.37 768.634,612.01 773.322,607.322C778.01,602.634 784.37,600 791,600ZM216,225C216,211.192 227.192,200 241,200L241,200C254.808,200 266,211.192 266,225L266,225C266,238.808 254.808,250 241,250L241,250C227.192,250 216,238.808 216,225L216,225Z" fill="#FDB623"/>
<path d="M366,100L116,100L116,350L366,350L366,100ZM166,150L316,150L316,300L166,300L166,150ZM266,550L216,550L216,600L266,600L266,550Z" fill="#FFFFFF"/>
<path d="M366,450L116,450L116,700L366,700L366,450ZM166,500L316,500L316,650L166,650L166,500ZM566,200L616,200L616,250L566,250L566,200Z" fill="#FFFFFF"/>
<path d="M466,100L716,100L716,350L466,350L466,100ZM516,150L516,300L666,300L666,150L516,150ZM416,400L416,500L466,500L466,550L416,550L416,600L516,600L516,500L566,500L566,600L616,600L616,550L716,550L716,500L566,500L566,400L416,400ZM516,500L466,500L466,450L516,450L516,500ZM716,600L666,600L666,650L566,650L566,700L716,700L716,600ZM516,700L516,650L416,650L416,700L516,700Z" fill="#FFFFFF"/>
<path d="M616,450L716,450L716,400L616,400L616,450Z" fill="#FFFFFF"/>
<circle cx="240.445" cy="224.444" r="28.889" fill="#FDB623"/>
<path d="M31.289,369.001C14.169,369.148 0.41,383.146 0.557,400.267C0.704,417.387 14.702,431.146 31.822,430.999L31.289,369.001ZM807.378,424.332C824.498,424.185 838.258,410.187 838.11,393.067C837.964,375.947 823.966,362.187 806.846,362.335L807.378,424.332ZM31.822,430.999L807.378,424.332L806.846,362.335L31.289,369.001L31.822,430.999Z" fill="#FDB623"/>
</svg>
