<svg width="800" height="800" viewBox="0 0 800 800" fill="none" xmlns="http://www.w3.org/2000/svg" xmlns:xlink="http://www.w3.org/1999/xlink">
<path d="M0,25C0,18.37 2.634,12.011 7.322,7.322C12.011,2.634 18.37,0 25,0L175,0C181.63,0 187.989,2.634 192.678,7.322C197.366,12.011 200,18.37 200,25C200,31.63 197.366,37.989 192.678,42.678C187.989,47.366 181.63,50 175,50L92,50C68.804,50 50,68.804 50,92L50,175C50,181.63 47.366,187.989 42.678,192.678C37.989,197.366 31.63,200 25,200C18.37,200 12.011,197.366 7.322,192.678C2.634,187.989 0,181.63 0,175L0,25ZM600,25C600,18.37 602.634,12.011 607.322,7.322C612.01,2.634 618.37,0 625,0L775,0C781.63,0 787.99,2.634 792.678,7.322C797.366,12.011 800,18.37 800,25L800,175C800,181.63 797.366,187.989 792.678,192.678C787.99,197.366 781.63,200 775,200C768.37,200 762.01,197.366 757.322,192.678C752.634,187.989 750,181.63 750,175L750,92C750,68.804 731.196,50 708,50L625,50C618.37,50 612.01,47.366 607.322,42.678C602.634,37.989 600,31.63 600,25ZM25,600C31.63,600 37.989,602.634 42.678,607.322C47.366,612.01 50,618.37 50,625L50,708C50,731.196 68.804,750 92,750L175,750C181.63,750 187.989,752.634 192.678,757.322C197.366,762.01 200,768.37 200,775C200,781.63 197.366,787.99 192.678,792.678C187.989,797.366 181.63,800 175,800L25,800C18.37,800 12.011,797.366 7.322,792.678C2.634,787.99 0,781.63 0,775L0,625C0,618.37 2.634,612.01 7.322,607.322C12.011,602.634 18.37,600 25,600ZM775,600C781.63,600 787.99,602.634 792.678,607.322C797.366,612.01 800,618.37 800,625L800,775C800,781.63 797.366,787.99 792.678,792.678C787.99,797.366 781.63,800 775,800L625,800C618.37,800 612.01,797.366 607.322,792.678C602.634,787.99 600,781.63 600,775C600,768.37 602.634,762.01 607.322,757.322C612.01,752.634 618.37,750 625,750L708,750C731.196,750 750,731.196 750,708L750,625C750,618.37 752.634,612.01 757.322,607.322C762.01,602.634 768.37,600 775,600ZM200,225C200,211.192 211.192,200 225,200L225,200C238.808,200 250,211.192 250,225L250,225C250,238.808 238.808,250 225,250L225,250C211.192,250 200,238.808 200,225L200,225Z" fill="#FDB623"/>
<path d="M350,100L100,100L100,350L350,350L350,100ZM150,150L300,150L300,300L150,300L150,150ZM250,550L200,550L200,600L250,600L250,550Z" fill="#FFFFFF"/>
<path d="M350,450L100,450L100,700L350,700L350,450ZM150,500L300,500L300,650L150,650L150,500ZM550,200L600,200L600,250L550,250L550,200Z" fill="#FFFFFF"/>
<path d="M450,100L700,100L700,350L450,350L450,100ZM500,150L500,300L650,300L650,150L500,150ZM400,400L400,500L450,500L450,550L400,550L400,600L500,600L500,500L550,500L550,600L600,600L600,550L700,550L700,500L550,500L550,400L400,400ZM500,500L450,500L450,450L500,450L500,500ZM700,600L650,600L650,650L550,650L550,700L700,700L700,600ZM500,700L500,650L400,650L400,700L500,700Z" fill="#FFFFFF"/>
<path d="M600,450L700,450L700,400L600,400L600,450Z" fill="#FFFFFF"/>
<circle cx="224.445" cy="224.444" r="28.889" fill="#FFFFFF"/>
<path d="M15.495,393C11.63,393.034 8.523,396.194 8.556,400.06C8.589,403.926 11.75,407.033 15.616,407L15.495,393ZM791.172,400.333C795.038,400.3 798.144,397.139 798.112,393.273C798.078,389.407 794.918,386.3 791.052,386.334L791.172,400.333ZM15.616,407L791.172,400.333L791.052,386.334L15.495,393L15.616,407Z" fill="#FDB623"/>
</svg>
