<svg width="404" height="400" viewBox="0 0 404 400" fill="none" xmlns="http://www.w3.org/2000/svg" xmlns:xlink="http://www.w3.org/1999/xlink">
<path d="M0,12.5C0,9.185 1.317,6.005 3.661,3.661C6.005,1.317 9.185,0 12.5,0L87.5,0C90.815,0 93.995,1.317 96.339,3.661C98.683,6.005 100,9.185 100,12.5C100,15.815 98.683,18.995 96.339,21.339C93.995,23.683 90.815,25 87.5,25L67,25C43.804,25 25,43.804 25,67L25,87.5C25,90.815 23.683,93.995 21.339,96.339C18.995,98.683 15.815,100 12.5,100C9.185,100 6.005,98.683 3.661,96.339C1.317,93.995 0,90.815 0,87.5L0,12.5ZM300,12.5C300,9.185 301.316,6.005 303.662,3.661C306.006,1.317 309.184,0 312.5,0L387.5,0C390.816,0 393.994,1.317 396.338,3.661C398.684,6.005 400,9.185 400,12.5L400,87.5C400,90.815 398.684,93.995 396.338,96.339C393.994,98.683 390.816,100 387.5,100C384.184,100 381.006,98.683 378.662,96.339C376.316,93.995 375,90.815 375,87.5L375,67C375,43.804 356.196,25 333,25L312.5,25C309.184,25 306.006,23.683 303.662,21.339C301.316,18.995 300,15.815 300,12.5ZM12.5,300C15.815,300 18.995,301.316 21.339,303.662C23.683,306.006 25,309.184 25,312.5L25,333C25,356.196 43.804,375 67,375L87.5,375C90.815,375 93.995,376.316 96.339,378.662C98.683,381.006 100,384.184 100,387.5C100,390.816 98.683,393.994 96.339,396.338C93.995,398.684 90.815,400 87.5,400L12.5,400C9.185,400 6.005,398.684 3.661,396.338C1.317,393.994 0,390.816 0,387.5L0,312.5C0,309.184 1.317,306.006 3.661,303.662C6.005,301.316 9.185,300 12.5,300ZM387.5,300C390.816,300 393.994,301.316 396.338,303.662C398.684,306.006 400,309.184 400,312.5L400,387.5C400,390.816 398.684,393.994 396.338,396.338C393.994,398.684 390.816,400 387.5,400L312.5,400C309.184,400 306.006,398.684 303.662,396.338C301.316,393.994 300,390.816 300,387.5C300,384.184 301.316,381.006 303.662,378.662C306.006,376.316 309.184,375 312.5,375L333,375C356.196,375 375,356.196 375,333L375,312.5C375,309.184 376.316,306.006 378.662,303.662C381.006,301.316 384.184,300 387.5,300ZM100,112.5C100,105.596 105.596,100 112.5,100L112.5,100C119.404,100 125,105.596 125,112.5L125,112.5C125,119.404 119.404,125 112.5,125L112.5,125C105.596,125 100,119.404 100,112.5L100,112.5Z" fill="#FDB623"/>
<path d="M175,50L50,50L50,175L175,175L175,50ZM75,75L150,75L150,150L75,150L75,75ZM125,275L100,275L100,300L125,300L125,275Z" fill="#FFFFFF"/>
<path d="M175,225L50,225L50,350L175,350L175,225ZM75,250L150,250L150,325L75,325L75,250ZM275,100L300,100L300,125L275,125L275,100Z" fill="#FFFFFF"/>
<path d="M225,50L350,50L350,175L225,175L225,50ZM250,75L250,150L325,150L325,75L250,75ZM200,200L200,250L225,250L225,275L200,275L200,300L250,300L250,250L275,250L275,300L300,300L300,275L350,275L350,250L275,250L275,200L200,200ZM250,250L225,250L225,225L250,225L250,250ZM350,300L325,300L325,325L275,325L275,350L350,350L350,300ZM250,350L250,325L200,325L200,350L250,350Z" fill="#FFFFFF"/>
<path d="M300,225L350,225L350,200L300,200L300,225Z" fill="#FFFFFF"/>
<circle cx="112.222" cy="112.222" r="14.444" fill="#FFFFFF"/>
<path d="M7.718,193C3.852,193.034 0.745,196.194 0.778,200.06C0.811,203.926 3.972,207.033 7.838,207L7.718,193ZM395.616,203.666C399.482,203.633 402.588,200.472 402.556,196.607C402.522,192.741 399.362,189.634 395.496,189.667L395.616,203.666ZM7.838,207L395.616,203.666L395.496,189.667L7.718,193L7.838,207Z" fill="#FDB623"/>
</svg>
