<svg width="94" height="80" viewBox="0 0 94 80" fill="none" xmlns="http://www.w3.org/2000/svg" xmlns:xlink="http://www.w3.org/1999/xlink">
<path d="M6,2.5C6,1.837 6.263,1.201 6.732,0.732C7.201,0.263 7.837,0 8.5,0L23.5,0C24.163,0 24.799,0.263 25.268,0.732C25.737,1.201 26,1.837 26,2.5C26,3.163 25.737,3.799 25.268,4.268C24.799,4.737 24.163,5 23.5,5L23.5,5C16.596,5 11,10.596 11,17.5L11,17.5C11,18.163 10.737,18.799 10.268,19.268C9.799,19.737 9.163,20 8.5,20C7.837,20 7.201,19.737 6.732,19.268C6.263,18.799 6,18.163 6,17.5L6,2.5ZM66,2.5C66,1.837 66.263,1.201 66.732,0.732C67.201,0.263 67.837,0 68.5,0L83.5,0C84.163,0 84.799,0.263 85.268,0.732C85.737,1.201 86,1.837 86,2.5L86,17.5C86,18.163 85.737,18.799 85.268,19.268C84.799,19.737 84.163,20 83.5,20C82.837,20 82.201,19.737 81.732,19.268C81.263,18.799 81,18.163 81,17.5L81,17.5C81,10.596 75.404,5 68.5,5L68.5,5C67.837,5 67.201,4.737 66.732,4.268C66.263,3.799 66,3.163 66,2.5ZM8.5,60C9.163,60 9.799,60.263 10.268,60.732C10.737,61.201 11,61.837 11,62.5L11,62.5C11,69.404 16.596,75 23.5,75L23.5,75C24.163,75 24.799,75.263 25.268,75.732C25.737,76.201 26,76.837 26,77.5C26,78.163 25.737,78.799 25.268,79.268C24.799,79.737 24.163,80 23.5,80L8.5,80C7.837,80 7.201,79.737 6.732,79.268C6.263,78.799 6,78.163 6,77.5L6,62.5C6,61.837 6.263,61.201 6.732,60.732C7.201,60.263 7.837,60 8.5,60ZM83.5,60C84.163,60 84.799,60.263 85.268,60.732C85.737,61.201 86,61.837 86,62.5L86,77.5C86,78.163 85.737,78.799 85.268,79.268C84.799,79.737 84.163,80 83.5,80L68.5,80C67.837,80 67.201,79.737 66.732,79.268C66.263,78.799 66,78.163 66,77.5C66,76.837 66.263,76.201 66.732,75.732C67.201,75.263 67.837,75 68.5,75L68.5,75C75.404,75 81,69.404 81,62.5L81,62.5C81,61.837 81.263,61.201 81.732,60.732C82.201,60.263 82.837,60 83.5,60ZM26,22.5C26,21.119 27.119,20 28.5,20L28.5,20C29.881,20 31,21.119 31,22.5L31,22.5C31,23.881 29.881,25 28.5,25L28.5,25C27.119,25 26,23.881 26,22.5L26,22.5Z" fill="#333333"/>
<path d="M41,10L16,10L16,35L41,35L41,10ZM21,15L36,15L36,30L21,30L21,15ZM31,55L26,55L26,60L31,60L31,55Z" fill="#FFFFFF"/>
<path d="M41,45L16,45L16,70L41,70L41,45ZM21,50L36,50L36,65L21,65L21,50ZM61,20L66,20L66,25L61,25L61,20Z" fill="#FFFFFF"/>
<path d="M51,10L76,10L76,35L51,35L51,10ZM56,15L56,30L71,30L71,15L56,15ZM46,40L46,50L51,50L51,55L46,55L46,60L56,60L56,50L61,50L61,60L66,60L66,55L76,55L76,50L61,50L61,40L46,40ZM56,50L51,50L51,45L56,45L56,50ZM76,60L71,60L71,65L61,65L61,70L76,70L76,60ZM56,70L56,65L46,65L46,70L56,70Z" fill="#FFFFFF"/>
<path d="M66,45L76,45L76,40L66,40L66,45Z" fill="#FFFFFF"/>
<circle cx="28.445" cy="22.445" r="2.889" fill="#FFFFFF"/>
<path d="M7.495,33C3.63,33.033 0.523,36.194 0.556,40.06C0.589,43.926 3.75,47.033 7.616,46.999L7.495,33ZM85.171,46.333C89.037,46.3 92.144,43.139 92.111,39.273C92.078,35.407 88.917,32.3 85.051,32.333L85.171,46.333ZM7.616,46.999L85.171,46.333L85.051,32.333L7.495,33L7.616,46.999Z" fill="#333333"/>
</svg>
