<svg width="820" height="800" viewBox="0 0 820 800" fill="none" xmlns="http://www.w3.org/2000/svg" xmlns:xlink="http://www.w3.org/1999/xlink">
<path d="M6,25C6,18.37 8.634,12.011 13.322,7.322C18.011,2.634 24.37,0 31,0L181,0C187.63,0 193.989,2.634 198.678,7.322C203.366,12.011 206,18.37 206,25C206,31.63 203.366,37.989 198.678,42.678C193.989,47.366 187.63,50 181,50L98,50C74.804,50 56,68.804 56,92L56,175C56,181.63 53.366,187.989 48.678,192.678C43.989,197.366 37.63,200 31,200C24.37,200 18.011,197.366 13.322,192.678C8.634,187.989 6,181.63 6,175L6,25ZM606,25C606,18.37 608.634,12.011 613.322,7.322C618.01,2.634 624.37,0 631,0L781,0C787.63,0 793.99,2.634 798.678,7.322C803.366,12.011 806,18.37 806,25L806,175C806,181.63 803.366,187.989 798.678,192.678C793.99,197.366 787.63,200 781,200C774.37,200 768.01,197.366 763.322,192.678C758.634,187.989 756,181.63 756,175L756,92C756,68.804 737.196,50 714,50L631,50C624.37,50 618.01,47.366 613.322,42.678C608.634,37.989 606,31.63 606,25ZM31,600C37.63,600 43.989,602.634 48.678,607.322C53.366,612.01 56,618.37 56,625L56,708C56,731.196 74.804,750 98,750L181,750C187.63,750 193.989,752.634 198.678,757.322C203.366,762.01 206,768.37 206,775C206,781.63 203.366,787.99 198.678,792.678C193.989,797.366 187.63,800 181,800L31,800C24.37,800 18.011,797.366 13.322,792.678C8.634,787.99 6,781.63 6,775L6,625C6,618.37 8.634,612.01 13.322,607.322C18.011,602.634 24.37,600 31,600ZM781,600C787.63,600 793.99,602.634 798.678,607.322C803.366,612.01 806,618.37 806,625L806,775C806,781.63 803.366,787.99 798.678,792.678C793.99,797.366 787.63,800 781,800L631,800C624.37,800 618.01,797.366 613.322,792.678C608.634,787.99 606,781.63 606,775C606,768.37 608.634,762.01 613.322,757.322C618.01,752.634 624.37,750 631,750L714,750C737.196,750 756,731.196 756,708L756,625C756,618.37 758.634,612.01 763.322,607.322C768.01,602.634 774.37,600 781,600ZM206,225C206,211.192 217.192,200 231,200L231,200C244.808,200 256,211.192 256,225L256,225C256,238.808 244.808,250 231,250L231,250C217.192,250 206,238.808 206,225L206,225Z" fill="#333333"/>
<path d="M356,100L106,100L106,350L356,350L356,100ZM156,150L306,150L306,300L156,300L156,150ZM256,550L206,550L206,600L256,600L256,550Z" fill="#FFFFFF"/>
<path d="M356,450L106,450L106,700L356,700L356,450ZM156,500L306,500L306,650L156,650L156,500ZM556,200L606,200L606,250L556,250L556,200Z" fill="#FFFFFF"/>
<path d="M456,100L706,100L706,350L456,350L456,100ZM506,150L506,300L656,300L656,150L506,150ZM406,400L406,500L456,500L456,550L406,550L406,600L506,600L506,500L556,500L556,600L606,600L606,550L706,550L706,500L556,500L556,400L406,400ZM506,500L456,500L456,450L506,450L506,500ZM706,600L656,600L656,650L556,650L556,700L706,700L706,600ZM506,700L506,650L406,650L406,700L506,700Z" fill="#FFFFFF"/>
<path d="M606,450L706,450L706,400L606,400L606,450Z" fill="#FFFFFF"/>
<circle cx="230.445" cy="224.445" r="28.889" fill="#333333"/>
<path d="M21.375,379.001C9.778,379.1 0.457,388.583 0.556,400.18C0.656,411.778 10.139,421.099 21.736,420.999L21.375,379.001ZM797.292,414.332C808.89,414.233 818.21,404.75 818.11,393.153C818.012,381.555 808.528,372.234 796.932,372.334L797.292,414.332ZM21.736,420.999L797.292,414.332L796.932,372.334L21.375,379.001L21.736,420.999Z" fill="#333333"/>
</svg>
