<svg width="80" height="80" viewBox="0 0 80 80" fill="none" xmlns="http://www.w3.org/2000/svg" xmlns:xlink="http://www.w3.org/1999/xlink">
<g opacity="0.32">
<rect  x="8" y="26" width="64" height="28" rx="14" fill="#FFFFFF" fill-opacity="0.38"/>
</g>
<g filter="url(#filterI14_1645;515_879)">
<path d="M28,59.999C39.046,59.999 48,51.045 48,39.999C48,28.953 39.046,19.999 28,19.999C16.954,19.999 8,28.953 8,39.999C8,51.045 16.954,59.999 28,59.999Z" clip-rule="evenodd" fill-rule="evenodd" fill="#121212"/>
<path d="M28,59.999C39.046,59.999 48,51.045 48,39.999C48,28.953 39.046,19.999 28,19.999C16.954,19.999 8,28.953 8,39.999C8,51.045 16.954,59.999 28,59.999Z" clip-rule="evenodd" fill-rule="evenodd" fill="#FFFFFF" fill-opacity="0.05"/>
</g>
<path d="M28,59.999C39.046,59.999 48,51.045 48,39.999C48,28.953 39.046,19.999 28,19.999C16.954,19.999 8,28.953 8,39.999C8,51.045 16.954,59.999 28,59.999Z" clip-rule="evenodd" fill-rule="evenodd" fill="#FFFFFF" fill-opacity="0.6"/>
<defs>
<filter id="filterI14_1645;515_879" x="5" y="16.999023" width="26" height="26" filterUnits="userSpaceOnUse" color-interpolation-filters="sRGB">
<feFlood flood-opacity="0" result="BackgroundImageFix"/>
<feColorMatrix in="SourceAlpha" type="matrix" values="0 0 0 0 0 0 0 0 0 0 0 0 0 0 0 0 0 0 127 0" result="hardAlpha"/>
<feMorphology radius="0" operator="dilate" in="SourceAlpha" result="0dropshadow"/>
<feOffset dx="0" dy="1"/>
<feGaussianBlur stdDeviation="1.5"/>
<feComposite in2="hardAlpha" operator="out"/>
<feColorMatrix type="matrix" values="0 0 0 0 0 0 0 0 0 0 0 0 0 0 0 0 0 0 0.2 0"/>
<feBlend mode="normal" in2="BackgroundImageFix" result="0dropshadow"/>
<feColorMatrix in="SourceAlpha" type="matrix" values="0 0 0 0 0 0 0 0 0 0 0 0 0 0 0 0 0 0 127 0" result="hardAlpha"/>
<feMorphology radius="0" operator="dilate" in="SourceAlpha" result="1dropshadow"/>
<feOffset dx="0" dy="2"/>
<feGaussianBlur stdDeviation="0.5"/>
<feComposite in2="hardAlpha" operator="out"/>
<feColorMatrix type="matrix" values="0 0 0 0 0 0 0 0 0 0 0 0 0 0 0 0 0 0 0.12 0"/>
<feBlend mode="normal" in2="0dropshadow" result="1dropshadow"/>
<feColorMatrix in="SourceAlpha" type="matrix" values="0 0 0 0 0 0 0 0 0 0 0 0 0 0 0 0 0 0 127 0" result="hardAlpha"/>
<feMorphology radius="0" operator="dilate" in="SourceAlpha" result="2dropshadow"/>
<feOffset dx="0" dy="1"/>
<feGaussianBlur stdDeviation="0.5"/>
<feComposite in2="hardAlpha" operator="out"/>
<feColorMatrix type="matrix" values="0 0 0 0 0 0 0 0 0 0 0 0 0 0 0 0 0 0 0.14 0"/>
<feBlend mode="normal" in2="1dropshadow" result="2dropshadow"/>
<feBlend mode="normal" in="SourceGraphic" in2="2dropshadow" result="shape"/>
</filter>
</defs>
</svg>
