<svg width="50" height="50" viewBox="0 0 50 50" fill="none" xmlns="http://www.w3.org/2000/svg" xmlns:xlink="http://www.w3.org/1999/xlink">
<path d="M41.861,4.167C41.861,3.798 41.715,3.445 41.454,3.185C41.194,2.924 40.841,2.778 40.472,2.778L9.917,2.778C9.548,2.778 9.195,2.924 8.935,3.185C8.674,3.445 8.528,3.798 8.528,4.167L8.528,5.556L41.861,5.556L41.861,4.167Z" fill="#D9D9D9"/>
<path d="M44.611,9.722C44.611,9.354 44.465,9.001 44.204,8.74C43.944,8.48 43.591,8.333 43.222,8.333L7.111,8.333C6.743,8.333 6.389,8.48 6.129,8.74C5.869,9.001 5.722,9.354 5.722,9.722L5.722,11.111L44.611,11.111L44.611,9.722Z" fill="#D9D9D9"/>
<path d="M44.611,13.889L5.389,13.889C4.696,13.889 4.032,14.164 3.543,14.654C3.053,15.143 2.778,15.807 2.778,16.5L2.778,41.833C2.778,42.526 3.053,43.19 3.543,43.68C4.032,44.169 4.696,44.444 5.389,44.444L44.611,44.444C45.304,44.444 45.968,44.169 46.457,43.68C46.947,43.19 47.222,42.526 47.222,41.833L47.222,16.5C47.222,15.807 46.947,15.143 46.457,14.654C45.968,14.164 45.304,13.889 44.611,13.889L44.611,13.889ZM11.889,18.681C12.713,18.681 13.519,18.925 14.204,19.383C14.889,19.841 15.423,20.491 15.738,21.253C16.054,22.014 16.136,22.852 15.975,23.66C15.815,24.468 15.418,25.211 14.835,25.794C14.252,26.376 13.51,26.773 12.702,26.934C11.894,27.095 11.056,27.012 10.294,26.697C9.533,26.381 8.882,25.847 8.424,25.162C7.967,24.477 7.722,23.671 7.722,22.847C7.722,21.742 8.161,20.682 8.943,19.901C9.724,19.12 10.784,18.681 11.889,18.681L11.889,18.681ZM41.667,38.889L8.333,38.889L18.694,28.514C18.879,28.331 19.129,28.228 19.389,28.228C19.649,28.228 19.899,28.331 20.083,28.514L25.194,33.625L32.236,26.389C32.421,26.206 32.67,26.103 32.931,26.103C33.191,26.103 33.44,26.206 33.625,26.389L41.667,34.43L41.667,38.889Z" fill="#D9D9D9"/>
</svg>
