<svg width="1178" height="1554" viewBox="0 0 1178 1554" fill="none" xmlns="http://www.w3.org/2000/svg" xmlns:xlink="http://www.w3.org/1999/xlink">
<line x1="792" y1="1482" x2="888.04" y2="1482" stroke="#FDB623" stroke-width="4" stroke-miterlimit="3.999327"/>
<path d="M491.01,654.91C491.01,786.1 381.094,892.452 245.506,892.452C109.917,892.452 0,786.1 0,654.91C0,523.721 109.917,417.37 245.506,417.37C381.094,417.37 491.01,523.721 491.01,654.91Z" fill="#FFFFFF" fill-opacity="0.04"/>
<path d="M491.01,846.593C491.01,977.783 381.094,1084.135 245.506,1084.135C109.917,1084.135 0,977.783 0,846.593C0,715.403 109.917,609.053 245.506,609.053C381.094,609.053 491.01,715.403 491.01,846.593Z" stroke="#D9D9D9" stroke-opacity="0.04" stroke-width="10" stroke-miterlimit="3.999327"/>
<path d="M1178,155.612C1178,241.554 1105.994,311.224 1017.17,311.224C928.346,311.224 856.34,241.554 856.34,155.612C856.34,69.67 928.346,0 1017.17,0C1105.994,0 1178,69.67 1178,155.612Z" stroke="#D9D9D9" stroke-opacity="0.04" stroke-width="10" stroke-miterlimit="3.999327"/>
<path d="M745.569,1449.978C745.569,1489.25 712.666,1521.086 672.077,1521.086C631.489,1521.086 598.586,1489.25 598.586,1449.978C598.586,1410.707 631.489,1378.871 672.077,1378.871C712.666,1378.871 745.569,1410.707 745.569,1449.978Z" fill="#FFFFFF" fill-opacity="0.04"/>
<path d="M831.842,1480.893C831.842,1520.165 798.939,1552.001 758.35,1552.001C717.762,1552.001 684.859,1520.165 684.859,1480.893C684.859,1441.622 717.762,1409.786 758.35,1409.786C798.939,1409.786 831.842,1441.622 831.842,1480.893Z" stroke="#D9D9D9" stroke-opacity="0.04" stroke-width="10" stroke-miterlimit="3.999327"/>
<path d="M1122.615,283.4C1122.615,298.767 1109.74,311.225 1093.857,311.225C1077.975,311.225 1065.1,298.767 1065.1,283.4C1065.1,268.033 1077.975,255.575 1093.857,255.575C1109.74,255.575 1122.615,268.033 1122.615,283.4Z" fill="#FFFFFF" fill-opacity="0.04"/>
</svg>
