<svg width="686" height="698" viewBox="0 0 686 698" fill="none" xmlns="http://www.w3.org/2000/svg" xmlns:xlink="http://www.w3.org/1999/xlink">
<path d="M0,21.812C0,16.027 2.259,10.479 6.279,6.389C10.299,2.298 15.752,0 21.438,0L150.062,0C155.748,0 161.201,2.298 165.221,6.389C169.241,10.479 171.5,16.027 171.5,21.812C171.5,27.598 169.241,33.146 165.221,37.236C161.201,41.327 155.748,43.625 150.062,43.625L84.875,43.625C61.679,43.625 42.875,62.429 42.875,85.625L42.875,152.688C42.875,158.473 40.616,164.021 36.596,168.111C32.576,172.202 27.123,174.5 21.438,174.5C15.752,174.5 10.299,172.202 6.279,168.111C2.259,164.021 0,158.473 0,152.688L0,21.812ZM514.5,21.812C514.5,16.027 516.758,10.479 520.778,6.389C524.8,2.298 530.252,0 535.938,0L664.562,0C670.248,0 675.7,2.298 679.722,6.389C683.742,10.479 686,16.027 686,21.812L686,152.688C686,158.473 683.742,164.021 679.722,168.111C675.7,172.202 670.248,174.5 664.562,174.5C658.876,174.5 653.424,172.202 649.404,168.111C645.384,164.021 643.124,158.473 643.124,152.688L643.124,85.625C643.124,62.429 624.32,43.625 601.124,43.625L535.938,43.625C530.252,43.625 524.8,41.327 520.778,37.236C516.758,33.146 514.5,27.598 514.5,21.812ZM21.438,523.5C27.123,523.5 32.576,525.798 36.596,529.888C40.616,533.98 42.875,539.528 42.875,545.312L42.875,612.376C42.875,635.57 61.679,654.376 84.875,654.376L150.062,654.376C155.748,654.376 161.201,656.674 165.221,660.764C169.241,664.854 171.5,670.402 171.5,676.188C171.5,681.972 169.241,687.52 165.221,691.612C161.201,695.702 155.748,698 150.062,698L21.438,698C15.752,698 10.299,695.702 6.279,691.612C2.259,687.52 0,681.972 0,676.188L0,545.312C0,539.528 2.259,533.98 6.279,529.888C10.299,525.798 15.752,523.5 21.438,523.5ZM664.562,523.5C670.248,523.5 675.7,525.798 679.722,529.888C683.742,533.98 686,539.528 686,545.312L686,676.188C686,681.972 683.742,687.52 679.722,691.612C675.7,695.702 670.248,698 664.562,698L535.938,698C530.252,698 524.8,695.702 520.778,691.612C516.758,687.52 514.5,681.972 514.5,676.188C514.5,670.402 516.758,664.854 520.778,660.764C524.8,656.674 530.252,654.376 535.938,654.376L601.124,654.376C624.32,654.376 643.124,635.57 643.124,612.376L643.124,545.312C643.124,539.528 645.384,533.98 649.404,529.888C653.424,525.798 658.876,523.5 664.562,523.5ZM171.5,195.938C171.5,184.098 181.098,174.5 192.938,174.5L192.938,174.5C204.778,174.5 214.376,184.098 214.376,195.938L214.376,196.688C214.376,208.528 204.778,218.124 192.938,218.124L192.938,218.124C181.098,218.124 171.5,208.528 171.5,196.688L171.5,195.938Z" fill="url(#pf_0_4_718)"/>
<path d="M13.278,342C9.412,342.034 6.305,345.195 6.339,349.061C6.373,352.927 9.534,356.034 13.4,356L13.278,342ZM678.439,350.183C682.305,350.149 685.411,346.988 685.377,343.122C685.343,339.256 682.183,336.15 678.317,336.184L678.439,350.183ZM13.4,356L678.439,350.183L678.317,336.184L13.278,342L13.4,356Z" fill="#FDB623"/>
<defs>
<linearGradient id="pf_0_4_718" x1="9" y1="0" x2="558" y2="571" gradientUnits="userSpaceOnUse">
<stop stop-color="#FDB623"/>
</linearGradient>
<linearGradient id="pf_0_4_719" x1="22.064" y1="343.183" x2="554.289" y2="347.942" gradientUnits="userSpaceOnUse">
<stop stop-color="#FDB623"/>
</linearGradient>
</defs>
</svg>
