<svg width="2718" height="2558" viewBox="0 0 2718 2558" fill="none" xmlns="http://www.w3.org/2000/svg" xmlns:xlink="http://www.w3.org/1999/xlink">
<g opacity="0.4" filter="url(#filter11_481)">
<path d="M2718,1279C2718,1985.372 2109.56,2558 1359,2558C608.446,2558 0,1985.372 0,1279C0,572.628 608.446,0 1359,0C2109.56,0 2718,572.628 2718,1279Z" fill="#FEB624"/>
</g>
<path d="M1927.88,171.131C1932.292,170.883 1935.666,167.106 1935.418,162.695C1935.17,158.284 1931.394,154.909 1926.982,155.157L1927.88,171.131ZM1719.795,1175.296C1716.671,1178.42 1716.671,1183.486 1719.795,1186.61L1770.707,1237.522C1773.831,1240.646 1778.896,1240.646 1782.021,1237.522C1785.145,1234.398 1785.145,1229.332 1782.021,1226.208L1736.766,1180.954L1782.021,1135.698C1785.145,1132.574 1785.145,1127.508 1782.021,1124.384C1778.896,1121.26 1773.831,1121.26 1770.707,1124.384L1719.795,1175.296ZM1745.778,1188.76C1750.195,1188.674 1753.707,1185.024 1753.621,1180.606C1753.536,1176.188 1749.885,1172.676 1745.468,1172.762L1745.778,1188.76ZM1783.207,1171.256C1778.797,1171.528 1775.443,1175.324 1775.716,1179.734C1775.989,1184.144 1779.785,1187.498 1784.195,1187.224L1783.207,1171.256ZM1822.84,1183.846C1827.23,1183.342 1830.379,1179.374 1829.874,1174.984C1829.369,1170.594 1825.401,1167.446 1821.012,1167.95L1822.84,1183.846ZM1857.5,1162.604C1853.153,1163.39 1850.266,1167.554 1851.053,1171.9C1851.84,1176.248 1856.003,1179.134 1860.351,1178.348L1857.5,1162.604ZM1899.005,1169.68C1903.268,1168.52 1905.783,1164.122 1904.622,1159.86C1903.461,1155.596 1899.064,1153.082 1894.801,1154.244L1899.005,1169.68ZM1930.086,1142.574C1925.98,1144.206 1923.974,1148.858 1925.606,1152.964C1927.238,1157.07 1931.89,1159.074 1935.996,1157.442L1930.086,1142.574ZM1971.168,1140.468C1974.986,1138.244 1976.276,1133.346 1974.052,1129.528C1971.826,1125.712 1966.928,1124.42 1963.112,1126.646L1971.168,1140.468ZM1992.722,1105.432C1989.412,1108.358 1989.1,1113.414 1992.026,1116.724C1994.952,1120.034 2000.008,1120.346 2003.318,1117.422L1992.722,1105.432ZM2029.998,1087.688C2032.532,1084.07 2031.656,1079.082 2028.036,1076.546C2024.418,1074.01 2019.43,1074.888 2016.894,1078.506L2029.998,1087.688ZM2033.858,1046.63C2032.262,1050.75 2034.306,1055.384 2038.426,1056.98C2042.546,1058.576 2047.18,1056.532 2048.776,1052.412L2033.858,1046.63ZM2059.06,1014.042C2059.77,1009.68 2056.81,1005.57 2052.45,1004.86C2048.088,1004.152 2043.978,1007.112 2043.268,1011.472L2059.06,1014.042ZM2046.096,974.732C2046.094,979.15 2049.674,982.734 2054.092,982.736C2058.512,982.738 2062.094,979.156 2062.096,974.738L2046.096,974.732ZM2059.666,935.656C2059.144,931.268 2055.162,928.136 2050.776,928.658C2046.388,929.182 2043.256,933.162 2043.778,937.55L2059.666,935.656ZM2037.612,900.488C2038.518,904.812 2042.758,907.582 2047.082,906.676C2051.406,905.768 2054.178,901.528 2053.27,897.204L2037.612,900.488ZM2043.986,859.458C2042.798,855.202 2038.384,852.716 2034.128,853.906C2029.872,855.096 2027.388,859.51 2028.578,863.764L2043.986,859.458ZM2017.446,827.608C2018.846,831.798 2023.378,834.06 2027.568,832.66C2031.76,831.26 2034.022,826.728 2032.62,822.536L2017.446,827.608ZM2019.726,786.354C2018.168,782.22 2013.552,780.134 2009.418,781.692C2005.284,783.25 2003.196,787.866 2004.756,792L2019.726,786.354ZM1990.804,756.658C1992.484,760.746 1997.158,762.696 2001.246,761.016C2005.332,759.336 2007.282,754.662 2005.602,750.576L1990.804,756.658ZM1990.554,715.156C1988.782,711.108 1984.066,709.262 1980.018,711.034C1975.97,712.804 1974.124,717.522 1975.896,721.57L1990.554,715.156ZM1960.3,686.76C1962.138,690.778 1966.886,692.544 1970.904,690.706C1974.92,688.868 1976.688,684.122 1974.85,680.104L1960.3,686.76ZM1958.706,645.38C1956.822,641.384 1952.054,639.672 1948.058,641.556C1944.062,643.44 1942.35,648.208 1944.234,652.204L1958.706,645.38ZM1927.802,617.698C1929.714,621.682 1934.492,623.36 1938.476,621.448C1942.46,619.536 1944.138,614.758 1942.226,610.774L1927.802,617.698ZM1925.618,576.314C1923.697,572.336 1918.914,570.668 1914.936,572.59C1910.957,574.512 1909.29,579.294 1911.211,583.272L1925.618,576.314ZM1894.624,548.866C1896.537,552.848 1901.316,554.526 1905.299,552.614C1909.281,550.702 1910.96,545.922 1909.047,541.94L1894.624,548.866ZM1892.584,507.372C1890.7,503.376 1885.934,501.662 1881.937,503.546C1877.94,505.428 1876.227,510.194 1878.11,514.192L1892.584,507.372ZM1861.951,479.342C1863.78,483.364 1868.523,485.14 1872.545,483.312C1876.567,481.482 1878.345,476.74 1876.516,472.718L1861.951,479.342ZM1861.108,437.934C1859.364,433.874 1854.659,431.996 1850.6,433.74C1846.54,435.484 1844.662,440.188 1846.406,444.248L1861.108,437.934ZM1831.788,408.774C1833.402,412.888 1838.045,414.912 1842.158,413.298C1846.271,411.684 1848.296,407.042 1846.682,402.928L1831.788,408.774ZM1833.678,367.54C1832.259,363.356 1827.716,361.115 1823.532,362.534C1819.348,363.954 1817.107,368.496 1818.526,372.68L1833.678,367.54ZM1807.309,335.587C1808.423,339.862 1812.793,342.424 1817.068,341.309C1821.344,340.195 1823.906,335.825 1822.791,331.55L1807.309,335.587ZM1815.293,294.904C1814.683,290.528 1810.641,287.475 1806.265,288.084C1801.889,288.694 1798.836,292.735 1799.446,297.111L1815.293,294.904ZM1797.601,257.138C1797.313,261.546 1800.653,265.354 1805.062,265.642C1809.471,265.93 1813.279,262.59 1813.567,258.181L1797.601,257.138ZM1821.469,224.014C1823.279,219.984 1821.48,215.249 1817.45,213.439C1813.42,211.628 1808.685,213.427 1806.874,217.457L1821.469,224.014ZM1832.089,184.742C1828.655,187.522 1828.126,192.56 1830.906,195.993C1833.686,199.427 1838.724,199.957 1842.157,197.177L1832.089,184.742ZM1872.908,180.793C1877.088,179.36 1879.314,174.81 1877.88,170.63C1876.447,166.451 1871.897,164.225 1867.718,165.659L1872.908,180.793ZM1906.348,157.024C1901.965,157.585 1898.867,161.593 1899.429,165.976C1899.99,170.358 1903.997,173.456 1908.38,172.895L1906.348,157.024ZM1725.452,1188.954C1732.353,1188.954 1739.128,1188.888 1745.778,1188.76L1745.468,1172.762C1738.924,1172.89 1732.253,1172.954 1725.452,1172.954L1725.452,1188.954ZM1784.195,1187.224C1797.646,1186.392 1810.522,1185.262 1822.84,1183.846L1821.012,1167.95C1808.991,1169.334 1796.396,1170.438 1783.207,1171.256L1784.195,1187.224ZM1860.351,1178.348C1874.025,1175.872 1886.899,1172.978 1899.005,1169.68L1894.801,1154.244C1883.178,1157.408 1870.757,1160.204 1857.5,1162.604L1860.351,1178.348ZM1935.996,1157.442C1948.786,1152.358 1960.494,1146.69 1971.168,1140.468L1963.112,1126.646C1953.182,1132.434 1942.2,1137.758 1930.086,1142.574L1935.996,1157.442ZM2003.318,1117.422C2013.684,1108.26 2022.542,1098.326 2029.998,1087.688L2016.894,1078.506C2010.178,1088.088 2002.168,1097.086 1992.722,1105.432L2003.318,1117.422ZM2048.776,1052.412C2053.52,1040.172 2056.894,1027.35 2059.06,1014.042L2043.268,1011.472C2041.264,1023.786 2038.162,1035.522 2033.858,1046.63L2048.776,1052.412ZM2062.096,974.738C2062.102,962.028 2061.254,948.98 2059.666,935.656L2043.778,937.55C2045.302,950.324 2046.102,962.732 2046.096,974.732L2062.096,974.738ZM2053.27,897.204C2050.672,884.808 2047.552,872.212 2043.986,859.458L2028.578,863.764C2032.06,876.222 2035.092,888.474 2037.612,900.488L2053.27,897.204ZM2032.62,822.536C2028.624,810.578 2024.308,798.506 2019.726,786.354L2004.756,792C2009.274,803.984 2013.522,815.862 2017.446,827.608L2032.62,822.536ZM2005.602,750.576C2000.768,738.812 1995.734,726.996 1990.554,715.156L1975.896,721.57C1981.036,733.316 1986.02,745.02 1990.804,756.658L2005.602,750.576ZM1974.85,680.104C1969.552,668.524 1964.156,656.94 1958.706,645.38L1944.234,652.204C1949.664,663.72 1955.034,675.246 1960.3,686.76L1974.85,680.104ZM1942.226,610.774C1936.688,599.236 1931.136,587.738 1925.618,576.314L1911.211,583.272C1916.73,594.698 1922.273,606.18 1927.802,617.698L1942.226,610.774ZM1909.047,541.94C1903.461,530.306 1897.957,518.776 1892.584,507.372L1878.11,514.192C1883.506,525.644 1889.027,537.212 1894.624,548.866L1909.047,541.94ZM1876.516,472.718C1871.157,460.936 1866.003,449.332 1861.108,437.934L1846.406,444.248C1851.354,455.768 1856.555,467.478 1861.951,479.342L1876.516,472.718ZM1846.682,402.928C1841.926,390.812 1837.567,379.004 1833.678,367.54L1818.526,372.68C1822.508,384.42 1826.957,396.466 1831.788,408.774L1846.682,402.928ZM1822.791,331.55C1819.44,318.699 1816.903,306.463 1815.293,294.904L1799.446,297.111C1801.158,309.403 1803.833,322.258 1807.309,335.587L1822.791,331.55ZM1813.567,258.181C1814.404,245.371 1816.993,233.975 1821.469,224.014L1806.874,217.457C1801.469,229.488 1798.537,242.819 1797.601,257.138L1813.567,258.181ZM1842.157,197.177C1850.246,190.627 1860.374,185.092 1872.908,180.793L1867.718,165.659C1853.696,170.468 1841.85,176.839 1832.089,184.742L1842.157,197.177ZM1908.38,172.895C1914.523,172.108 1921.018,171.517 1927.88,171.131L1926.982,155.157C1919.772,155.562 1912.897,156.186 1906.348,157.024L1908.38,172.895Z" transform="rotate(-156.728 1889.774 672.049)" fill="#545454"/>
<defs>
<filter id="filter11_481" x="-1091" y="-1091" width="3541" height="3461" filterUnits="userSpaceOnUse" color-interpolation-filters="sRGB">
<feFlood flood-opacity="0" result="BackgroundImageFix"/>
<feBlend mode="normal" in="SourceGraphic" in2="BackgroundImageFix" result="shape"/>
<feGaussianBlur stdDeviation="545.5" result="0foregroundblur"/>
</filter>
</defs>
</svg>
