<svg width="734" height="734" viewBox="0 0 734 734" fill="none" xmlns="http://www.w3.org/2000/svg" xmlns:xlink="http://www.w3.org/1999/xlink">
<path d="M399.333,432.667L432.667,432.667L432.667,465.999L399.333,465.999L399.333,432.667ZM432.667,465.999L465.999,465.999L465.999,499.333L432.667,499.333L432.667,465.999ZM432.667,499.333L465.999,499.333L465.999,532.667L432.667,532.667L432.667,499.333ZM499.333,499.333L532.667,499.333L532.667,532.667L499.333,532.667L499.333,499.333ZM499.333,532.667L532.667,532.667L532.667,565.999L499.333,565.999L499.333,532.667ZM399.333,499.333L432.667,499.333L432.667,532.667L399.333,532.667L399.333,499.333ZM465.999,499.333L499.333,499.333L499.333,532.667L465.999,532.667L465.999,499.333ZM465.999,532.667L499.333,532.667L499.333,565.999L465.999,565.999L465.999,532.667ZM565.999,499.333L599.333,499.333L599.333,532.667L565.999,532.667L565.999,499.333ZM565.999,465.999L599.333,465.999L599.333,499.333L565.999,499.333L565.999,465.999ZM599.333,432.667L632.667,432.667L632.667,465.999L599.333,465.999L599.333,432.667ZM532.667,499.333L565.999,499.333L565.999,532.667L532.667,532.667L532.667,499.333ZM532.667,532.667L565.999,532.667L565.999,565.999L532.667,565.999L532.667,532.667ZM499.333,565.999L532.667,565.999L532.667,599.333L499.333,599.333L499.333,565.999ZM465.999,565.999L499.333,565.999L499.333,599.333L465.999,599.333L465.999,565.999ZM532.667,565.999L565.999,565.999L565.999,599.333L532.667,599.333L532.667,565.999ZM565.999,565.999L599.333,565.999L599.333,599.333L565.999,599.333L565.999,565.999ZM499.333,599.333L532.667,599.333L532.667,632.667L499.333,632.667L499.333,599.333ZM432.667,599.333L465.999,599.333L465.999,632.667L432.667,632.667L432.667,599.333ZM465.999,599.333L499.333,599.333L499.333,632.667L465.999,632.667L465.999,599.333ZM399.333,599.333L432.667,599.333L432.667,632.667L399.333,632.667L399.333,599.333ZM399.333,632.667L432.667,632.667L432.667,665.999L399.333,665.999L399.333,632.667ZM432.667,665.999L465.999,665.999L465.999,699.333L432.667,699.333L432.667,665.999ZM465.999,665.999L499.333,665.999L499.333,699.333L465.999,699.333L465.999,665.999ZM532.667,665.999L565.999,665.999L565.999,699.333L532.667,699.333L532.667,665.999ZM565.999,665.999L599.333,665.999L599.333,699.333L565.999,699.333L565.999,665.999ZM532.667,599.333L565.999,599.333L565.999,632.667L532.667,632.667L532.667,599.333ZM565.999,599.333L599.333,599.333L599.333,632.667L565.999,632.667L565.999,599.333ZM599.333,565.999L632.667,565.999L632.667,599.333L599.333,599.333L599.333,565.999ZM599.333,532.667L632.667,532.667L632.667,565.999L599.333,565.999L599.333,532.667ZM599.333,632.667L632.667,632.667L632.667,665.999L599.333,665.999L599.333,632.667ZM599.333,599.333L632.667,599.333L632.667,632.667L599.333,632.667L599.333,599.333ZM632.667,565.999L665.999,565.999L665.999,599.333L632.667,599.333L632.667,565.999ZM632.667,532.667L665.999,532.667L665.999,565.999L632.667,565.999L632.667,532.667ZM665.999,632.667L699.333,632.667L699.333,665.999L665.999,665.999L665.999,632.667ZM665.999,565.999L699.333,565.999L699.333,599.333L665.999,599.333L665.999,565.999ZM665.999,599.333L699.333,599.333L699.333,632.667L665.999,632.667L665.999,599.333ZM599.333,499.333L632.667,499.333L632.667,532.667L599.333,532.667L599.333,499.333ZM399.333,532.667L432.667,532.667L432.667,565.999L399.333,565.999L399.333,532.667ZM365.999,532.667L399.333,532.667L399.333,565.999L365.999,565.999L365.999,532.667ZM365.999,565.999L399.333,565.999L399.333,599.333L365.999,599.333L365.999,565.999ZM432.667,565.999L465.999,565.999L465.999,599.333L432.667,599.333L432.667,565.999ZM332.667,565.999L365.999,565.999L365.999,599.333L332.667,599.333L332.667,565.999ZM399.333,565.999L432.667,565.999L432.667,599.333L399.333,599.333L399.333,565.999ZM332.667,599.333L365.999,599.333L365.999,632.667L332.667,632.667L332.667,599.333ZM332.667,632.667L365.999,632.667L365.999,665.999L332.667,665.999L332.667,632.667ZM332.667,-0.667L365.999,-0.667L365.999,32.667L332.667,32.667L332.667,-0.667ZM365.999,32.667L399.333,32.667L399.333,66L365.999,66L365.999,32.667ZM332.667,99.333L365.999,99.333L365.999,132.667L332.667,132.667L332.667,99.333ZM365.999,132.667L399.333,132.667L399.333,166L365.999,166L365.999,132.667ZM332.667,166L365.999,166L365.999,199.333L332.667,199.333L332.667,166ZM365.999,166L399.333,166L399.333,199.333L365.999,199.333L365.999,166ZM365.999,199.333L399.333,199.333L399.333,232.667L365.999,232.667L365.999,199.333ZM365.999,232.667L399.333,232.667L399.333,265.999L365.999,265.999L365.999,232.667ZM332.667,265.999L365.999,265.999L365.999,299.333L332.667,299.333L332.667,265.999ZM365.999,265.999L399.333,265.999L399.333,299.333L365.999,299.333L365.999,265.999ZM332.667,299.333L365.999,299.333L365.999,332.667L332.667,332.667L332.667,299.333ZM-0.667,332.667L32.666,332.667L32.666,365.999L-0.667,365.999L-0.667,332.667ZM32.666,365.999L66,365.999L66,399.333L32.666,399.333L32.666,365.999ZM99.333,332.667L132.666,332.667L132.666,365.999L99.333,365.999L99.333,332.667ZM99.333,365.999L132.666,365.999L132.666,399.333L99.333,399.333L99.333,365.999ZM132.666,332.667L166,332.667L166,365.999L132.666,365.999L132.666,332.667ZM166,365.999L199.333,365.999L199.333,399.333L166,399.333L166,365.999ZM199.333,332.667L232.667,332.667L232.667,365.999L199.333,365.999L199.333,332.667ZM232.667,365.999L265.999,365.999L265.999,399.333L232.667,399.333L232.667,365.999ZM232.667,332.667L265.999,332.667L265.999,365.999L232.667,365.999L232.667,332.667ZM265.999,332.667L299.333,332.667L299.333,365.999L265.999,365.999L265.999,332.667ZM299.333,332.667L332.667,332.667L332.667,365.999L299.333,365.999L299.333,332.667ZM332.667,365.999L365.999,365.999L365.999,399.333L332.667,399.333L332.667,365.999ZM399.333,365.999L432.667,365.999L432.667,399.333L399.333,399.333L399.333,365.999ZM432.667,332.667L465.999,332.667L465.999,365.999L432.667,365.999L432.667,332.667ZM465.999,332.667L499.333,332.667L499.333,365.999L465.999,365.999L465.999,332.667ZM499.333,332.667L532.667,332.667L532.667,365.999L499.333,365.999L499.333,332.667ZM465.999,399.333L499.333,399.333L499.333,432.667L465.999,432.667L465.999,399.333ZM399.333,699.333L432.667,699.333L432.667,732.667L399.333,732.667L399.333,699.333ZM365.999,699.333L399.333,699.333L399.333,732.667L365.999,732.667L365.999,699.333ZM365.999,399.333L399.333,399.333L399.333,432.667L365.999,432.667L365.999,399.333ZM332.667,399.333L365.999,399.333L365.999,432.667L332.667,432.667L332.667,399.333ZM332.667,432.667L365.999,432.667L365.999,465.999L332.667,465.999L332.667,432.667ZM332.667,465.999L365.999,465.999L365.999,499.333L332.667,499.333L332.667,465.999ZM699.333,432.667L732.667,432.667L732.667,465.999L699.333,465.999L699.333,432.667ZM665.999,465.999L699.333,465.999L699.333,499.333L665.999,499.333L665.999,465.999ZM699.333,532.667L732.667,532.667L732.667,565.999L699.333,565.999L699.333,532.667ZM532.667,399.333L565.999,399.333L565.999,432.667L532.667,432.667L532.667,399.333ZM565.999,365.999L599.333,365.999L599.333,399.333L565.999,399.333L565.999,365.999ZM699.333,365.999L732.667,365.999L732.667,399.333L699.333,399.333L699.333,365.999ZM699.333,399.333L732.667,399.333L732.667,432.667L699.333,432.667L699.333,399.333ZM665.999,399.333L699.333,399.333L699.333,432.667L665.999,432.667L665.999,399.333ZM699.333,665.999L732.667,665.999L732.667,699.333L699.333,699.333L699.333,665.999ZM665.999,699.333L699.333,699.333L699.333,732.667L665.999,732.667L665.999,699.333ZM599.333,699.333L632.667,699.333L632.667,732.667L599.333,732.667L599.333,699.333ZM699.333,699.333L732.667,699.333L732.667,732.667L699.333,732.667L699.333,699.333Z" clip-rule="evenodd" fill-rule="evenodd" fill="#FDB623"/>
<path d="M466,32.667L466,9.667L443,9.667L443,32.667L466,32.667ZM699.332,32.667L722.332,32.667L722.332,9.667L699.332,9.667L699.332,32.667ZM699.332,266.001L699.332,289.001L722.332,289.001L722.332,266.001L699.332,266.001ZM466,266.001L443,266.001L443,289.001L466,289.001L466,266.001ZM32.666,32.667L32.666,9.667L9.666,9.667L9.666,32.667L32.666,32.667ZM266,32.667L289,32.667L289,9.667L266,9.667L266,32.667ZM266,266.001L266,289.001L289,289.001L289,266.001L266,266.001ZM32.666,266.001L9.666,266.001L9.666,289.001L32.666,289.001L32.666,266.001ZM32.666,466.001L32.666,443.001L9.666,443.001L9.666,466.001L32.666,466.001ZM266,466.001L289,466.001L289,443.001L266,443.001L266,466.001ZM266,699.333L266,722.333L289,722.333L289,699.333L266,699.333ZM32.666,699.333L9.666,699.333L9.666,722.333L32.666,722.333L32.666,699.333ZM566,132.667L566,109.667L543,109.667L543,132.667L566,132.667ZM599.332,132.667L622.332,132.667L622.332,109.667L599.332,109.667L599.332,132.667ZM599.332,166L599.332,189L622.332,189L622.332,166L599.332,166ZM566,166L543,166L543,189L566,189L566,166ZM132.666,132.667L132.666,109.667L109.666,109.667L109.666,132.667L132.666,132.667ZM165.999,132.667L188.999,132.667L188.999,109.667L165.999,109.667L165.999,132.667ZM165.999,166L165.999,189L188.999,189L188.999,166L165.999,166ZM132.666,166L109.666,166L109.666,189L132.666,189L132.666,166ZM132.666,566.001L132.666,543.001L109.666,543.001L109.666,566.001L132.666,566.001ZM165.999,566.001L188.999,566.001L188.999,543.001L165.999,543.001L165.999,566.001ZM165.999,599.333L165.999,622.333L188.999,622.333L188.999,599.333L165.999,599.333ZM132.666,599.333L109.666,599.333L109.666,622.333L132.666,622.333L132.666,599.333ZM466,55.667L699.332,55.667L699.332,9.667L466,9.667L466,55.667ZM676.332,32.667L676.332,266.001L722.332,266.001L722.332,32.667L676.332,32.667ZM699.332,243.001L466,243.001L466,289.001L699.332,289.001L699.332,243.001ZM489,266.001L489,32.667L443,32.667L443,266.001L489,266.001ZM32.666,55.667L266,55.667L266,9.667L32.666,9.667L32.666,55.667ZM243,32.667L243,266.001L289,266.001L289,32.667L243,32.667ZM266,243.001L32.666,243.001L32.666,289.001L266,289.001L266,243.001ZM55.666,266.001L55.666,32.667L9.666,32.667L9.666,266.001L55.666,266.001ZM32.666,489.001L266,489.001L266,443.001L32.666,443.001L32.666,489.001ZM243,466.001L243,699.333L289,699.333L289,466.001L243,466.001ZM266,676.333L32.666,676.333L32.666,722.333L266,722.333L266,676.333ZM55.666,699.333L55.666,466.001L9.666,466.001L9.666,699.333L55.666,699.333ZM566,155.667L599.332,155.667L599.332,109.667L566,109.667L566,155.667ZM576.332,132.667L576.332,166L622.332,166L622.332,132.667L576.332,132.667ZM599.332,143L566,143L566,189L599.332,189L599.332,143ZM589,166L589,132.667L543,132.667L543,166L589,166ZM132.666,155.667L165.999,155.667L165.999,109.667L132.666,109.667L132.666,155.667ZM142.999,132.667L142.999,166L188.999,166L188.999,132.667L142.999,132.667ZM165.999,143L132.666,143L132.666,189L165.999,189L165.999,143ZM155.666,166L155.666,132.667L109.666,132.667L109.666,166L155.666,166ZM132.666,589.001L165.999,589.001L165.999,543.001L132.666,543.001L132.666,589.001ZM142.999,566.001L142.999,599.333L188.999,599.333L188.999,566.001L142.999,566.001ZM165.999,576.333L132.666,576.333L132.666,622.333L165.999,622.333L165.999,576.333ZM155.666,599.333L155.666,566.001L109.666,566.001L109.666,599.333L155.666,599.333Z" fill="#FFFFFF"/>
</svg>
