<svg width="1640" height="1944" viewBox="0 0 1640 1944" fill="none" xmlns="http://www.w3.org/2000/svg" xmlns:xlink="http://www.w3.org/1999/xlink">
<g opacity="0.1" style="isolation:isolate">
<path d="M411.468,1761.125C544.932,1761.125 653.124,1652.933 653.124,1519.469C653.124,1386.006 544.932,1277.813 411.468,1277.813C278.006,1277.813 169.813,1386.006 169.813,1519.469C169.813,1652.933 278.006,1761.125 411.468,1761.125Z" clip-rule="evenodd" fill-rule="evenodd" fill="#3D3D3D"/>
</g>
<g opacity="0.2" style="isolation:isolate">
<path d="M418,1944C648.856,1944 836,1756.856 836,1526C836,1295.145 648.856,1108 418,1108C187.145,1108 0,1295.145 0,1526C0,1756.856 187.145,1944 418,1944Z" clip-rule="evenodd" fill-rule="evenodd" fill="#3D3D3D" stroke="#9CA8C2" stroke-width="1" stroke-miterlimit="3.999327"/>
</g>
<g opacity="0.1" style="isolation:isolate">
<path d="M1215.469,653.124C1348.933,653.124 1457.125,544.933 1457.125,411.469C1457.125,278.006 1348.933,169.813 1215.469,169.813C1082.006,169.813 973.813,278.006 973.813,411.469C973.813,544.933 1082.006,653.124 1215.469,653.124Z" clip-rule="evenodd" fill-rule="evenodd" fill="#3D3D3D"/>
</g>
<g opacity="0.2" style="isolation:isolate">
<path d="M1222,836C1452.856,836 1640,648.856 1640,418C1640,187.145 1452.856,0 1222,0C991.145,0 804,187.145 804,418C804,648.856 991.145,836 1222,836Z" clip-rule="evenodd" fill-rule="evenodd" fill="#3D3D3D" stroke="#9CA8C2" stroke-width="1" stroke-miterlimit="3.999327"/>
</g>
<g opacity="0.1" style="isolation:isolate">
<path d="M582,664C608.51,664 630,642.51 630,616C630,589.49 608.51,568 582,568C555.49,568 534,589.49 534,616C534,642.51 555.49,664 582,664Z" clip-rule="evenodd" fill-rule="evenodd" fill="#3D3D3D"/>
</g>
<g opacity="0.2" style="isolation:isolate">
<path d="M996,1356C1007.046,1356 1016,1347.046 1016,1336C1016,1324.954 1007.046,1316 996,1316C984.954,1316 976,1324.954 976,1336C976,1347.046 984.954,1356 996,1356Z" clip-rule="evenodd" fill-rule="evenodd" fill="#3D3D3D"/>
</g>
</svg>
