<svg width="40" height="40" viewBox="0 0 40 40" fill="none" xmlns="http://www.w3.org/2000/svg" xmlns:xlink="http://www.w3.org/1999/xlink">
<path d="M6,4L22,4L22,0L6,0L6,4ZM22,4C23.105,4 24,4.895 24,6L28,6C28,2.686 25.314,0 22,0L22,4ZM24,6L24,34L28,34L28,6L24,6ZM24,34C24,35.105 23.105,36 22,36L22,40C25.314,40 28,37.314 28,34L24,34ZM22,36L6,36L6,40L22,40L22,36ZM6,36C4.895,36 4,35.105 4,34L0,34C0,37.314 2.686,40 6,40L6,36ZM4,34L4,6L0,6L0,34L4,34ZM4,6C4,4.895 4.895,4 6,4L6,0C2.686,0 0,2.686 0,6L4,6Z" fill="#D9D9D9"/>
<path d="M12,2C10.895,2 10,2.895 10,4C10,5.105 10.895,6 12,6L12,2ZM16,6C17.105,6 18,5.105 18,4C18,2.895 17.105,2 16,2L16,6ZM16,30C16,28.895 15.105,28 14,28C12.895,28 12,28.895 12,30L16,30ZM12,30.02C12,31.125 12.895,32.02 14,32.02C15.105,32.02 16,31.125 16,30.02L12,30.02ZM39.664,9.109C40.277,8.19 40.028,6.949 39.109,6.336C38.19,5.723 36.949,5.972 36.336,6.891L39.664,9.109ZM34,14L32.336,12.891C31.888,13.562 31.888,14.438 32.336,15.109L34,14ZM38,20L39.664,21.109C40.112,20.438 40.112,19.562 39.664,18.891L38,20ZM34,26L32.336,24.891C31.888,25.562 31.888,26.438 32.336,27.109L34,26ZM36.336,33.109C36.949,34.028 38.19,34.277 39.109,33.664C40.028,33.051 40.277,31.81 39.664,30.891L36.336,33.109ZM12,6L16,6L16,2L12,2L12,6ZM12,30L12,30.02L16,30.02L16,30L12,30ZM36.336,6.891L32.336,12.891L35.664,15.109L39.664,9.109L36.336,6.891ZM32.336,15.109L36.336,21.109L39.664,18.891L35.664,12.891L32.336,15.109ZM36.336,18.891L32.336,24.891L35.664,27.109L39.664,21.109L36.336,18.891ZM32.336,27.109L36.336,33.109L39.664,30.891L35.664,24.891L32.336,27.109Z" fill="#D9D9D9"/>
</svg>
