<svg width="44" height="36" viewBox="0 0 44 36" fill="none" xmlns="http://www.w3.org/2000/svg" xmlns:xlink="http://www.w3.org/1999/xlink">
<path d="M24.661,0.871L24.844,0.659C25.637,-0.152 26.885,-0.214 27.748,0.472L27.956,0.659L43.356,16.409L43.447,16.508L43.447,16.508L43.568,16.661L43.568,16.661L43.726,16.911L43.726,16.911L43.843,17.165L43.843,17.165L43.921,17.402L43.921,17.402L43.985,17.734L43.985,17.734L44,18L44,18L43.994,18.169L43.994,18.169L43.955,18.452L43.955,18.452L43.891,18.702L43.891,18.702L43.794,18.952L43.794,18.952L43.679,19.172L43.679,19.172L43.517,19.407L43.517,19.407L43.356,19.591L27.956,35.341C27.096,36.22 25.704,36.22 24.844,35.341C24.051,34.53 23.99,33.254 24.661,32.371L24.844,32.159L36.485,20.25L2.2,20.25C0.985,20.25 0,19.243 0,18C0,16.757 0.985,15.75 2.2,15.75L36.489,15.75L24.844,3.841C24.051,3.03 23.99,1.754 24.661,0.871L24.844,0.659L24.661,0.871Z" clip-rule="evenodd" fill-rule="evenodd" fill="#FFFFFF"/>
</svg>
