<svg width="46" height="38" viewBox="0 0 46 38" fill="none" xmlns="http://www.w3.org/2000/svg" xmlns:xlink="http://www.w3.org/1999/xlink">
<path d="M25.061,1.271L25.244,1.059C26.037,0.248 27.285,0.186 28.148,0.872L28.356,1.059L43.756,16.809L43.847,16.908L43.847,16.908L43.968,17.061L43.968,17.061L44.126,17.311L44.126,17.311L44.243,17.565L44.243,17.565L44.321,17.802L44.321,17.802L44.385,18.134L44.385,18.134L44.4,18.4L44.4,18.4L44.394,18.569L44.394,18.569L44.355,18.852L44.355,18.852L44.291,19.102L44.291,19.102L44.194,19.352L44.194,19.352L44.079,19.572L44.079,19.572L43.917,19.807L43.917,19.807L43.756,19.991L28.356,35.741C27.496,36.62 26.104,36.62 25.244,35.741C24.451,34.93 24.39,33.654 25.061,32.771L25.244,32.559L36.885,20.65L2.6,20.65C1.385,20.65 0.4,19.643 0.4,18.4C0.4,17.157 1.385,16.15 2.6,16.15L36.889,16.15L25.244,4.241C24.451,3.43 24.39,2.154 25.061,1.271L25.244,1.059L25.061,1.271Z" clip-rule="evenodd" fill-rule="evenodd" fill="#333333"/>
</svg>
