<svg width="800" height="908" viewBox="0 0 800 908" fill="none" xmlns="http://www.w3.org/2000/svg" xmlns:xlink="http://www.w3.org/1999/xlink">
<path d="M712.5,85.125L606.5,85.125C589,85.125 575.5,101.015 575.5,120.31C575.5,139.605 589.5,155.495 606.5,155.495L712.5,155.495L712.5,298.505C712.5,318.367 726.5,333.691 743.5,333.691C760.5,333.691 774.5,317.801 774.5,298.505L774.5,156.063C774.5,116.905 746.5,85.125 712,85.125L712.5,85.125ZM56,334.257C73.5,334.257 87,318.367 87,299.073L87,156.063L194.5,156.063C212,156.063 225.5,140.173 225.5,120.878C225.5,101.582 211.5,85.693 194.5,85.693L87.5,85.693C53,85.693 25,117.472 25,156.63L25,299.641C25,319.503 39,334.825 56,334.825L56,334.257ZM194.5,751.937L87.5,751.937L87.5,608.927C87.5,589.065 73.5,573.743 56.5,573.743C39.5,573.743 25.5,589.633 25.5,608.927L25.5,751.937C25.5,791.095 53.5,822.875 88,822.875L194.5,822.875C212,822.875 225.5,806.985 225.5,787.691C225.5,768.395 211.5,752.505 194.5,752.505L194.5,751.937ZM744,573.743C726.5,573.743 713,589.633 713,608.927L713,751.937L607,751.937C589.5,751.937 576,767.827 576,787.123C576,806.417 590,822.307 607,822.307L713,822.307C747.5,822.307 775.5,790.527 775.5,751.369L775.5,608.359C775.5,588.497 761.5,573.175 744.5,573.175L744,573.743Z" fill="#333333"/>
<path d="M306,201.463L201.5,201.463C167,201.463 139,233.243 139,272.4L139,359.795C139,398.953 167,430.733 201.5,430.733L306,430.733C340.5,430.733 368.5,398.953 368.5,359.795L368.5,272.4C368.5,233.243 340.5,201.463 306,201.463ZM306,359.795L201.5,359.795L201.5,272.4L306,272.4L306,359.795ZM661,635.599L661,548.205C661,509.047 633,477.267 598.5,477.267L494,477.267C459.5,477.267 431.5,509.047 431.5,548.205L431.5,635.599C431.5,674.757 459.5,706.537 494,706.537L598.5,706.537C633,706.537 661,674.757 661,635.599ZM494,548.205L598.5,548.205L598.5,635.599L494,635.599L494,548.205ZM431.5,331.988L557.5,331.988L557.5,402.925L431.5,402.925L431.5,331.988ZM431.5,229.838L661,229.838L661,300.775L431.5,300.775L431.5,229.838ZM242.5,505.075L368.5,505.075L368.5,576.013L242.5,576.013L242.5,505.075ZM139,607.225L368.5,607.225L368.5,678.163L139,678.163L139,607.225Z" fill="#FFFFFF"/>
</svg>
