<svg width="800" height="906" viewBox="0 0 800 906" fill="none" xmlns="http://www.w3.org/2000/svg" xmlns:xlink="http://www.w3.org/1999/xlink">
<path d="M712.5,84.938L606.5,84.938C589,84.938 575.5,100.793 575.5,120.045C575.5,139.298 589.5,155.153 606.5,155.153L712.5,155.153L712.5,297.847C712.5,317.666 726.5,332.956 743.5,332.956C760.5,332.956 774.5,317.099 774.5,297.847L774.5,155.719C774.5,116.648 746.5,84.938 712,84.938L712.5,84.938ZM56,333.521C73.5,333.521 87,317.666 87,298.414L87,155.719L194.5,155.719C212,155.719 225.5,139.864 225.5,120.611C225.5,101.359 211.5,85.504 194.5,85.504L87.5,85.504C53,85.504 25,117.214 25,156.285L25,298.979C25,318.8 39,334.088 56,334.088L56,333.521ZM194.5,750.282L87.5,750.282L87.5,607.586C87.5,587.767 73.5,572.479 56.5,572.479C39.5,572.479 25.5,588.334 25.5,607.586L25.5,750.282C25.5,789.354 53.5,821.064 88,821.064L194.5,821.064C212,821.064 225.5,805.208 225.5,785.956C225.5,766.704 211.5,750.847 194.5,750.847L194.5,750.282ZM744,572.479C726.5,572.479 713,588.334 713,607.586L713,750.282L607,750.282C589.5,750.282 576,766.135 576,785.39C576,804.641 590,820.496 607,820.496L713,820.496C747.5,820.496 775.5,788.786 775.5,749.716L775.5,607.019C775.5,587.202 761.5,571.914 744.5,571.914L744,572.479Z" fill="#FDB623"/>
<path d="M306,201.019L201.5,201.019C167,201.019 139,232.729 139,271.8L139,359.003C139,398.074 167,429.783 201.5,429.783L306,429.783C340.5,429.783 368.5,398.074 368.5,359.003L368.5,271.8C368.5,232.729 340.5,201.019 306,201.019ZM306,359.003L201.5,359.003L201.5,271.8L306,271.8L306,359.003ZM661,634.199L661,546.997C661,507.927 633,476.217 598.5,476.217L494,476.217C459.5,476.217 431.5,507.927 431.5,546.997L431.5,634.199C431.5,673.271 459.5,704.981 494,704.981L598.5,704.981C633,704.981 661,673.271 661,634.199ZM494,546.997L598.5,546.997L598.5,634.199L494,634.199L494,546.997ZM431.5,331.256L557.5,331.256L557.5,402.037L431.5,402.037L431.5,331.256ZM431.5,229.331L661,229.331L661,300.113L431.5,300.113L431.5,229.331ZM242.5,503.963L368.5,503.963L368.5,574.743L242.5,574.743L242.5,503.963ZM139,605.887L368.5,605.887L368.5,676.669L139,676.669L139,605.887Z" fill="#FFFFFF"/>
</svg>
