<svg width="68" height="60" viewBox="0 0 68 60" fill="none" xmlns="http://www.w3.org/2000/svg" xmlns:xlink="http://www.w3.org/1999/xlink">
<path d="M33.333,13.333L33.333,0L0,0L0,60L66.667,60L66.667,13.333L33.333,13.333ZM13.333,53.333L6.667,53.333L6.667,46.667L13.333,46.667L13.333,53.333ZM13.333,40L6.667,40L6.667,33.333L13.333,33.333L13.333,40ZM13.333,26.667L6.667,26.667L6.667,20L13.333,20L13.333,26.667ZM13.333,13.333L6.667,13.333L6.667,6.667L13.333,6.667L13.333,13.333ZM26.667,53.333L20,53.333L20,46.667L26.667,46.667L26.667,53.333ZM26.667,40L20,40L20,33.333L26.667,33.333L26.667,40ZM26.667,26.667L20,26.667L20,20L26.667,20L26.667,26.667ZM26.667,13.333L20,13.333L20,6.667L26.667,6.667L26.667,13.333ZM60,53.333L33.333,53.333L33.333,46.667L40,46.667L40,40L33.333,40L33.333,33.333L40,33.333L40,26.667L33.333,26.667L33.333,20L60,20L60,53.333ZM53.333,26.667L46.667,26.667L46.667,33.333L53.333,33.333L53.333,26.667ZM53.333,40L46.667,40L46.667,46.667L53.333,46.667L53.333,40Z" fill="url(#pf_0_15_303)"/>
<defs>
<linearGradient id="pf_0_15_303" x1="33.333" y1="0" x2="33.333" y2="60" gradientUnits="userSpaceOnUse">
<stop stop-color="#FDB623"/>
<stop offset="1" stop-color="#333333"/>
</linearGradient>
</defs>
</svg>
