<svg width="68" height="60" viewBox="0 0 68 60" fill="none" xmlns="http://www.w3.org/2000/svg" xmlns:xlink="http://www.w3.org/1999/xlink">
<path d="M56.667,20C53.889,20 51.528,19.028 49.583,17.083C47.639,15.139 46.667,12.778 46.667,10C46.667,7.222 47.639,4.861 49.583,2.917C51.528,0.972 53.889,0 56.667,0C59.444,0 61.806,0.972 63.75,2.917C65.694,4.861 66.667,7.222 66.667,10C66.667,12.778 65.694,15.139 63.75,17.083C61.806,19.028 59.444,20 56.667,20ZM6.667,60C4.833,60 3.264,59.348 1.96,58.043C0.653,56.737 0,55.167 0,53.333L0,13.333C0,11.5 0.653,9.931 1.96,8.627C3.264,7.32 4.833,6.667 6.667,6.667L40.333,6.667C40.111,7.778 40,8.889 40,10C40,11.111 40.111,12.222 40.333,13.333C40.722,15.111 41.361,16.763 42.25,18.29C43.139,19.819 44.222,21.167 45.5,22.333L33.333,30L6.667,13.333L6.667,20L33.333,36.667L50.917,25.667C51.861,26 52.806,26.25 53.75,26.417C54.694,26.583 55.667,26.667 56.667,26.667C58.444,26.667 60.194,26.389 61.917,25.833C63.639,25.278 65.222,24.444 66.667,23.333L66.667,53.333C66.667,55.167 66.014,56.737 64.71,58.043C63.403,59.348 61.833,60 60,60L6.667,60Z" fill="#FDB623"/>
</svg>
