<svg width="60" height="60" viewBox="0 0 60 60" fill="none" xmlns="http://www.w3.org/2000/svg" xmlns:xlink="http://www.w3.org/1999/xlink">
<path d="M3.333,0C2.449,0 1.601,0.351 0.976,0.976C0.351,1.601 0,2.449 0,3.333C0,18.362 5.97,32.776 16.597,43.403C27.224,54.03 41.638,60 56.667,60C57.551,60 58.399,59.649 59.024,59.024C59.649,58.399 60,57.551 60,56.667L60,45C60,44.116 59.649,43.268 59.024,42.643C58.399,42.018 57.551,41.667 56.667,41.667C52.5,41.667 48.5,41 44.767,39.767C44.181,39.58 43.555,39.556 42.956,39.697C42.357,39.838 41.808,40.138 41.367,40.567L34.033,47.9C24.571,43.087 16.879,35.396 12.067,25.933L19.4,18.567C19.841,18.148 20.154,17.612 20.302,17.021C20.45,16.431 20.426,15.811 20.233,15.233C18.969,11.394 18.327,7.376 18.333,3.333C18.333,2.449 17.982,1.601 17.357,0.976C16.732,0.351 15.884,0 15,0L3.333,0ZM53.333,26.667L53.333,21.667L41.667,21.667L60,3.333L56.667,0L38.333,18.333L38.333,6.667L33.333,6.667L33.333,26.667L53.333,26.667Z" fill="#D9D9D9"/>
</svg>
