<svg width="42" height="38" viewBox="0 0 42 38" fill="none" xmlns="http://www.w3.org/2000/svg" xmlns:xlink="http://www.w3.org/1999/xlink">
<path d="M29.854,15.875L24.646,21.083L26.833,23.271L28.187,21.917C27.979,23.757 27.198,25.294 25.844,26.527C24.49,27.759 22.875,28.375 21,28.375C20.514,28.375 20.062,28.332 19.646,28.246C19.229,28.158 18.812,28.028 18.396,27.854L16.104,30.146C16.833,30.562 17.606,30.892 18.423,31.135C19.238,31.378 20.097,31.5 21,31.5C23.778,31.5 26.147,30.562 28.108,28.687C30.071,26.812 31.139,24.521 31.312,21.812L32.875,23.271L35.062,21.083L29.854,15.875ZM12.146,26.292L17.354,21.083L15.167,18.896L13.812,20.25C14.021,18.41 14.802,16.873 16.156,15.64C17.51,14.408 19.125,13.792 21,13.792C21.486,13.792 21.937,13.835 22.354,13.921C22.771,14.008 23.187,14.139 23.604,14.313L25.896,12.021C25.167,11.604 24.394,11.274 23.579,11.031C22.762,10.788 21.903,10.667 21,10.667C18.222,10.667 15.853,11.604 13.892,13.479C11.929,15.354 10.861,17.646 10.687,20.354L9.125,18.896L6.937,21.083L12.146,26.292ZM4.333,37.75C3.187,37.75 2.207,37.342 1.392,36.527C0.575,35.71 0.167,34.729 0.167,33.583L0.167,8.583C0.167,7.438 0.575,6.457 1.392,5.642C2.207,4.825 3.187,4.417 4.333,4.417L10.896,4.417L14.75,0.25L27.25,0.25L31.104,4.417L37.667,4.417C38.812,4.417 39.794,4.825 40.61,5.642C41.426,6.457 41.833,7.438 41.833,8.583L41.833,33.583C41.833,34.729 41.426,35.71 40.61,36.527C39.794,37.342 38.812,37.75 37.667,37.75L4.333,37.75Z" fill="#D9D9D9"/>
</svg>
