<svg width="60" height="68" viewBox="0 0 60 68" fill="none" xmlns="http://www.w3.org/2000/svg" xmlns:xlink="http://www.w3.org/1999/xlink">
<path d="M24.167,52.167L17.083,45.083C16.417,44.417 16.083,43.611 16.083,42.667C16.083,41.722 16.417,40.917 17.083,40.25C17.75,39.583 18.556,39.25 19.5,39.25C20.444,39.25 21.25,39.583 21.917,40.25L26.5,44.833L38.083,33.25C38.75,32.583 39.556,32.25 40.5,32.25C41.444,32.25 42.25,32.583 42.917,33.25C43.583,33.917 43.917,34.722 43.917,35.667C43.917,36.611 43.583,37.417 42.917,38.083L28.833,52.167C28.222,52.778 27.444,53.083 26.5,53.083C25.556,53.083 24.778,52.778 24.167,52.167L24.167,52.167ZM6.667,66.667C4.833,66.667 3.263,66.014 1.957,64.71C0.652,63.403 0,61.833 0,60L0,13.333C0,11.5 0.652,9.931 1.957,8.627C3.263,7.32 4.833,6.667 6.667,6.667L10,6.667L10,3.333C10,2.389 10.319,1.597 10.957,0.957C11.597,0.319 12.389,0 13.333,0C14.278,0 15.07,0.319 15.71,0.957C16.348,1.597 16.667,2.389 16.667,3.333L16.667,6.667L43.333,6.667L43.333,3.333C43.333,2.389 43.653,1.597 44.293,0.957C44.931,0.319 45.722,0 46.667,0C47.611,0 48.402,0.319 49.04,0.957C49.68,1.597 50,2.389 50,3.333L50,6.667L53.333,6.667C55.167,6.667 56.737,7.32 58.043,8.627C59.348,9.931 60,11.5 60,13.333L60,60C60,61.833 59.348,63.403 58.043,64.71C56.737,66.014 55.167,66.667 53.333,66.667L6.667,66.667ZM6.667,60L53.333,60L53.333,26.667L6.667,26.667L6.667,60Z" fill="#D9D9D9"/>
</svg>
