<svg width="120" height="120" viewBox="0 0 120 120" fill="none" xmlns="http://www.w3.org/2000/svg" xmlns:xlink="http://www.w3.org/1999/xlink">
<path d="M54.545,81.818L54.545,49.091L38.182,49.091L38.182,38.182L81.818,38.182L81.818,49.091L65.455,49.091L65.455,81.818L54.545,81.818ZM0,120L0,87.273L10.909,87.273L10.909,32.727L0,32.727L0,0L32.727,0L32.727,10.909L87.273,10.909L87.273,0L120,0L120,32.727L109.091,32.727L109.091,87.273L120,87.273L120,120L87.273,120L87.273,109.091L32.727,109.091L32.727,120L0,120ZM32.727,98.182L87.273,98.182L87.273,87.273L98.182,87.273L98.182,32.727L87.273,32.727L87.273,21.818L32.727,21.818L32.727,32.727L21.818,32.727L21.818,87.273L32.727,87.273L32.727,98.182ZM10.909,21.818L21.818,21.818L21.818,10.909L10.909,10.909L10.909,21.818ZM98.182,21.818L109.091,21.818L109.091,10.909L98.182,10.909L98.182,21.818ZM98.182,109.091L109.091,109.091L109.091,98.182L98.182,98.182L98.182,109.091ZM10.909,109.091L21.818,109.091L21.818,98.182L10.909,98.182L10.909,109.091Z" fill="#FDB623"/>
</svg>
