<svg width="54" height="46" viewBox="0 0 54 46" fill="none" xmlns="http://www.w3.org/2000/svg" xmlns:xlink="http://www.w3.org/1999/xlink">
<path d="M30.5,-0.5C24.533,-0.5 18.81,1.871 14.59,6.09C10.371,10.31 8,16.033 8,22L0.5,22L10.225,31.725L10.4,32.075L20.5,22L13,22C13,12.325 20.825,4.5 30.5,4.5C40.175,4.5 48,12.325 48,22C48,31.675 40.175,39.5 30.5,39.5C25.675,39.5 21.3,37.525 18.15,34.35L14.6,37.9C16.684,39.995 19.161,41.657 21.89,42.79C24.619,43.922 27.545,44.504 30.5,44.5C36.467,44.5 42.19,42.129 46.41,37.91C50.629,33.69 53,27.967 53,22C53,16.033 50.629,10.31 46.41,6.09C42.19,1.871 36.467,-0.5 30.5,-0.5L30.5,-0.5ZM28,12L28,24.5L38.625,30.8L40.55,27.6L31.75,22.375L31.75,12L28,12Z" fill="#FDB623"/>
</svg>
