<svg width="70" height="58" viewBox="0 0 70 58" fill="none" xmlns="http://www.w3.org/2000/svg" xmlns:xlink="http://www.w3.org/1999/xlink">
<path d="M69.733,6.667C67.167,7.833 64.4,8.6 61.533,8.967C64.467,7.2 66.733,4.4 67.8,1.033C65.033,2.7 61.967,3.867 58.733,4.533C56.1,1.667 52.4,0 48.2,0C40.367,0 33.967,6.4 33.967,14.3C33.967,15.433 34.1,16.533 34.333,17.567C22.467,16.967 11.9,11.267 4.867,2.633C3.633,4.733 2.933,7.2 2.933,9.8C2.933,14.767 5.433,19.167 9.3,21.667C6.933,21.667 4.733,21 2.8,20L2.8,20.1C2.8,27.033 7.733,32.833 14.267,34.133C12.169,34.707 9.967,34.787 7.833,34.367C8.739,37.208 10.512,39.695 12.903,41.476C15.295,43.258 18.185,44.246 21.167,44.3C16.112,48.301 9.847,50.464 3.4,50.433C2.267,50.433 1.133,50.367 0,50.233C6.333,54.3 13.867,56.667 21.933,56.667C48.2,56.667 62.633,34.867 62.633,15.967C62.633,15.333 62.633,14.733 62.6,14.1C65.4,12.1 67.8,9.567 69.733,6.667L69.733,6.667Z" fill="#D9D9D9"/>
</svg>
