<svg width="80" height="58" viewBox="0 0 80 58" fill="none" xmlns="http://www.w3.org/2000/svg" xmlns:xlink="http://www.w3.org/1999/xlink">
<path d="M21.167,37.833L14.167,30.667C17.444,27.389 21.292,24.792 25.71,22.877C30.126,20.959 34.889,20 40,20C45.111,20 49.876,20.972 54.293,22.917C58.709,24.861 62.556,27.5 65.833,30.833L58.833,37.833C56.389,35.389 53.556,33.472 50.333,32.083C47.111,30.694 43.667,30 40,30C36.333,30 32.889,30.694 29.667,32.083C26.444,33.472 23.611,35.389 21.167,37.833L21.167,37.833ZM7,23.667L0,16.667C5.111,11.444 11.083,7.361 17.917,4.417C24.75,1.472 32.111,0 40,0C47.889,0 55.25,1.472 62.083,4.417C68.917,7.361 74.889,11.444 80,16.667L73,23.667C68.722,19.389 63.764,16.041 58.127,13.623C52.487,11.208 46.444,10 40,10C33.556,10 27.513,11.208 21.873,13.623C16.236,16.041 11.278,19.389 7,23.667ZM40,56.667L51.75,44.833C50.25,43.333 48.5,42.152 46.5,41.29C44.5,40.43 42.333,40 40,40C37.667,40 35.5,40.43 33.5,41.29C31.5,42.152 29.75,43.333 28.25,44.833L40,56.667Z" fill="#D9D9D9"/>
</svg>
