<svg width="28" height="36" viewBox="0 0 28 36" fill="none" xmlns="http://www.w3.org/2000/svg" xmlns:xlink="http://www.w3.org/1999/xlink">
<path d="M2,32C2,34.2 3.8,36 6,36L22,36C24.2,36 26,34.2 26,32L26,8L2,8L2,32ZM8.34,19.18C7.966,18.806 7.756,18.299 7.756,17.77C7.756,17.241 7.966,16.734 8.34,16.36C8.714,15.986 9.221,15.776 9.75,15.776C10.279,15.776 10.786,15.986 11.16,16.36L14,19.18L16.82,16.36C17.194,15.986 17.701,15.776 18.23,15.776C18.759,15.776 19.266,15.986 19.64,16.36C20.014,16.734 20.224,17.241 20.224,17.77C20.224,18.299 20.014,18.806 19.64,19.18L16.82,22L19.64,24.82C19.825,25.005 19.972,25.225 20.072,25.467C20.172,25.709 20.224,25.968 20.224,26.23C20.224,26.492 20.172,26.751 20.072,26.993C19.972,27.235 19.825,27.455 19.64,27.64C19.455,27.825 19.235,27.972 18.993,28.072C18.751,28.172 18.492,28.224 18.23,28.224C17.968,28.224 17.709,28.172 17.467,28.072C17.225,27.972 17.005,27.825 16.82,27.64L14,24.82L11.18,27.64C10.995,27.825 10.775,27.972 10.533,28.072C10.291,28.172 10.032,28.224 9.77,28.224C9.508,28.224 9.249,28.172 9.007,28.072C8.765,27.972 8.545,27.825 8.36,27.64C8.175,27.455 8.028,27.235 7.928,26.993C7.828,26.751 7.776,26.492 7.776,26.23C7.776,25.968 7.828,25.709 7.928,25.467C8.028,25.225 8.175,25.005 8.36,24.82L11.18,22L8.34,19.18ZM26,2L21,2L19.58,0.58C19.22,0.22 18.7,0 18.18,0L9.82,0C9.3,0 8.78,0.22 8.42,0.58L7,2L2,2C0.9,2 0,2.9 0,4C0,5.1 0.9,6 2,6L26,6C27.1,6 28,5.1 28,4C28,2.9 27.1,2 26,2Z" fill="#FDB623"/>
</svg>
