<svg width="100" height="100" viewBox="0 0 100 100" fill="none" xmlns="http://www.w3.org/2000/svg" xmlns:xlink="http://www.w3.org/1999/xlink">
<path d="M5.556,0C4.082,0 2.669,0.585 1.627,1.627C0.585,2.669 0,4.082 0,5.556C0,30.604 9.95,54.626 27.662,72.338C45.374,90.05 69.396,100 94.444,100C95.918,100 97.331,99.415 98.373,98.373C99.415,97.331 100,95.918 100,94.444L100,75C100,73.527 99.415,72.113 98.373,71.072C97.331,70.03 95.918,69.444 94.444,69.444C87.5,69.444 80.833,68.333 74.611,66.278C73.634,65.967 72.591,65.926 71.593,66.161C70.596,66.396 69.68,66.897 68.944,67.611L56.722,79.833C40.951,71.812 28.132,58.993 20.111,43.222L32.333,30.944C33.069,30.246 33.591,29.353 33.837,28.369C34.083,27.385 34.043,26.351 33.722,25.389C31.615,18.989 30.546,12.293 30.556,5.556C30.556,4.082 29.97,2.669 28.928,1.627C27.886,0.585 26.473,0 25,0L5.556,0ZM88.889,44.444L88.889,36.111L69.444,36.111L100,5.556L94.444,0L63.889,30.556L63.889,11.111L55.556,11.111L55.556,44.444L88.889,44.444Z" fill="#FDB623"/>
</svg>
