<svg width="74" height="74" viewBox="0 0 74 74" fill="none" xmlns="http://www.w3.org/2000/svg" xmlns:xlink="http://www.w3.org/1999/xlink">
<path d="M33.333,50L33.333,30L23.333,30L23.333,23.333L50,23.333L50,30L40,30L40,50L33.333,50ZM0,73.333L0,53.333L6.667,53.333L6.667,20L0,20L0,0L20,0L20,6.667L53.333,6.667L53.333,0L73.333,0L73.333,20L66.667,20L66.667,53.333L73.333,53.333L73.333,73.333L53.333,73.333L53.333,66.667L20,66.667L20,73.333L0,73.333ZM20,60L53.333,60L53.333,53.333L60,53.333L60,20L53.333,20L53.333,13.333L20,13.333L20,20L13.333,20L13.333,53.333L20,53.333L20,60ZM6.667,13.333L13.333,13.333L13.333,6.667L6.667,6.667L6.667,13.333ZM60,13.333L66.667,13.333L66.667,6.667L60,6.667L60,13.333ZM60,66.667L66.667,66.667L66.667,60L60,60L60,66.667ZM6.667,66.667L13.333,66.667L13.333,60L6.667,60L6.667,66.667Z" fill="#D9D9D9"/>
</svg>
