<svg width="112" height="120" viewBox="0 0 112 120" fill="none" xmlns="http://www.w3.org/2000/svg" xmlns:xlink="http://www.w3.org/1999/xlink">
<path d="M99.556,11.866L93.333,11.866L93.333,0L80.889,0L80.889,11.866L31.111,11.866L31.111,0L18.667,0L18.667,11.866L12.444,11.866C9.144,11.866 5.979,13.116 3.645,15.341C1.311,17.567 0,20.585 0,23.732L0,106.794C0,109.941 1.311,112.959 3.645,115.185C5.979,117.41 9.144,118.66 12.444,118.66L99.556,118.66C106.4,118.66 112,113.32 112,106.794L112,23.732C112,17.206 106.4,11.866 99.556,11.866ZM56,29.665C66.329,29.665 74.667,37.615 74.667,47.464C74.667,57.313 66.329,65.263 56,65.263C45.671,65.263 37.333,57.313 37.333,47.464C37.333,37.615 45.671,29.665 56,29.665ZM93.333,100.861L18.667,100.861L18.667,94.928C18.667,83.062 43.556,76.536 56,76.536C68.444,76.536 93.333,83.062 93.333,94.928L93.333,100.861Z" fill="#FDB623"/>
</svg>
