<svg width="66" height="66" viewBox="0 0 66 66" fill="none" xmlns="http://www.w3.org/2000/svg" xmlns:xlink="http://www.w3.org/1999/xlink">
<path d="M40.25,65.253C39.25,65.475 38.376,65.266 37.627,64.626C36.876,63.988 36.5,63.114 36.5,62.003C36.5,61.225 36.764,60.517 37.293,59.879C37.82,59.239 38.472,58.808 39.25,58.586C40.639,58.253 41.987,57.822 43.293,57.293C44.598,56.766 45.861,56.114 47.083,55.336C47.806,54.892 48.598,54.712 49.46,54.796C50.32,54.878 51.028,55.197 51.583,55.753C52.361,56.531 52.709,57.419 52.627,58.419C52.542,59.419 52.056,60.197 51.167,60.753C49.444,61.864 47.681,62.781 45.877,63.503C44.07,64.225 42.194,64.808 40.25,65.253L40.25,65.253ZM56.333,51.003C55.778,50.447 55.458,49.753 55.373,48.919C55.291,48.086 55.472,47.336 55.917,46.669C56.639,45.447 57.278,44.197 57.833,42.919C58.389,41.642 58.833,40.281 59.167,38.836C59.389,38.058 59.833,37.392 60.5,36.836C61.167,36.281 61.889,36.003 62.667,36.003C63.778,36.003 64.653,36.392 65.293,37.169C65.931,37.947 66.111,38.836 65.833,39.836C65.389,41.836 64.791,43.739 64.04,45.546C63.291,47.351 62.361,49.058 61.25,50.669C60.694,51.503 59.931,51.961 58.96,52.043C57.987,52.127 57.111,51.781 56.333,51.003L56.333,51.003ZM62.583,29.336C61.806,29.336 61.098,29.058 60.46,28.503C59.82,27.947 59.389,27.281 59.167,26.503C58.833,25.058 58.389,23.683 57.833,22.376C57.278,21.072 56.639,19.836 55.917,18.669C55.472,18.003 55.291,17.253 55.373,16.419C55.458,15.586 55.778,14.892 56.333,14.336C57.111,13.558 57.987,13.197 58.96,13.253C59.931,13.308 60.694,13.753 61.25,14.586C62.361,16.197 63.306,17.933 64.083,19.793C64.861,21.655 65.472,23.558 65.917,25.503C66.139,26.503 65.917,27.392 65.25,28.169C64.583,28.947 63.694,29.336 62.583,29.336L62.583,29.336ZM26.167,65.169C18.556,63.392 12.291,59.503 7.373,53.503C2.458,47.503 0,40.558 0,32.669C0,24.725 2.444,17.725 7.333,11.669C12.222,5.614 18.472,1.753 26.083,0.086C27.083,-0.136 27.959,0.072 28.71,0.709C29.459,1.349 29.833,2.197 29.833,3.253C29.833,4.031 29.569,4.738 29.04,5.376C28.513,6.016 27.861,6.447 27.083,6.669C21.139,8.114 16.25,11.253 12.417,16.086C8.583,20.919 6.667,26.447 6.667,32.669C6.667,38.892 8.583,44.378 12.417,49.129C16.25,53.878 21.139,57.031 27.083,58.586C27.861,58.808 28.513,59.253 29.04,59.919C29.569,60.586 29.833,61.308 29.833,62.086C29.833,63.142 29.472,63.975 28.75,64.586C28.028,65.197 27.167,65.392 26.167,65.169L26.167,65.169ZM47.333,10.086C46.056,9.308 44.75,8.627 43.417,8.043C42.083,7.461 40.722,7.003 39.333,6.669C38.556,6.447 37.889,6.016 37.333,5.376C36.778,4.738 36.5,4.031 36.5,3.253C36.5,2.197 36.876,1.349 37.627,0.709C38.376,0.072 39.25,-0.136 40.25,0.086C42.194,0.531 44.083,1.114 45.917,1.836C47.75,2.558 49.528,3.475 51.25,4.586C52.139,5.142 52.626,5.919 52.71,6.919C52.792,7.919 52.444,8.808 51.667,9.586C51.111,10.142 50.431,10.475 49.627,10.586C48.82,10.697 48.056,10.531 47.333,10.086L47.333,10.086ZM33.25,48.169C32.806,48.169 32.389,48.099 32,47.959C31.611,47.822 31.25,47.614 30.917,47.336C27.25,43.947 24.5,40.781 22.667,37.836C20.833,34.892 19.917,32.169 19.917,29.669C19.917,25.503 21.264,22.184 23.96,19.713C26.653,17.239 29.75,16.003 33.25,16.003C36.75,16.003 39.848,17.239 42.543,19.713C45.237,22.184 46.583,25.503 46.583,29.669C46.583,32.169 45.667,34.892 43.833,37.836C42,40.781 39.25,43.947 35.583,47.336C35.25,47.614 34.889,47.822 34.5,47.959C34.111,48.099 33.694,48.169 33.25,48.169L33.25,48.169ZM33.25,32.669C34.25,32.669 35.098,32.323 35.793,31.629C36.487,30.934 36.833,30.086 36.833,29.086C36.833,28.142 36.487,27.308 35.793,26.586C35.098,25.864 34.25,25.503 33.25,25.503C32.25,25.503 31.402,25.864 30.707,26.586C30.013,27.308 29.667,28.142 29.667,29.086C29.667,30.086 30.013,30.934 30.707,31.629C31.402,32.323 32.25,32.669 33.25,32.669Z" fill="url(#pf_0_15_275)"/>
<defs>
<linearGradient id="pf_0_15_275" x1="33" y1="0" x2="33" y2="65.339" gradientUnits="userSpaceOnUse">
<stop stop-color="#FDB623"/>
<stop offset="1" stop-color="#333333"/>
</linearGradient>
</defs>
</svg>
