<svg width="24" height="38" viewBox="0 0 24 38" fill="none" xmlns="http://www.w3.org/2000/svg" xmlns:xlink="http://www.w3.org/1999/xlink">
<path d="M18.25,36.2L1.4,19.4C1.2,19.2 1.059,18.983 0.976,18.75C0.892,18.516 0.85,18.266 0.85,18C0.85,17.733 0.892,17.483 0.976,17.25C1.059,17.016 1.2,16.8 1.4,16.6L18.25,-0.25C18.717,-0.717 19.3,-0.95 20,-0.95C20.7,-0.95 21.3,-0.7 21.8,-0.2C22.3,0.3 22.55,0.883 22.55,1.55C22.55,2.216 22.3,2.8 21.8,3.3L7.1,18L21.8,32.7C22.267,33.166 22.5,33.741 22.5,34.424C22.5,35.108 22.25,35.7 21.75,36.2C21.25,36.7 20.667,36.95 20,36.95C19.333,36.95 18.75,36.7 18.25,36.2L18.25,36.2Z" fill="#FDB623"/>
</svg>
