<svg width="48" height="52" viewBox="0 0 48 52" fill="none" xmlns="http://www.w3.org/2000/svg" xmlns:xlink="http://www.w3.org/1999/xlink">
<path d="M16.941,41.6C15.388,41.6 14.059,41.091 12.954,40.074C11.848,39.055 11.294,37.83 11.294,36.4L11.294,5.2C11.294,3.77 11.848,2.545 12.954,1.526C14.059,0.509 15.388,0 16.941,0L42.353,0C43.906,0 45.236,0.509 46.343,1.526C47.448,2.545 48,3.77 48,5.2L48,36.4C48,37.83 47.448,39.055 46.343,40.074C45.236,41.091 43.906,41.6 42.353,41.6L16.941,41.6ZM5.647,52C4.094,52 2.764,51.491 1.657,50.474C0.552,49.455 0,48.23 0,46.8L0,13C0,12.263 0.271,11.645 0.813,11.146C1.353,10.649 2.024,10.4 2.824,10.4C3.624,10.4 4.295,10.649 4.837,11.146C5.377,11.645 5.647,12.263 5.647,13L5.647,46.8L33.882,46.8C34.682,46.8 35.353,47.05 35.896,47.549C36.436,48.046 36.706,48.663 36.706,49.4C36.706,50.137 36.436,50.754 35.896,51.251C35.353,51.75 34.682,52 33.882,52L5.647,52Z" fill="#333333"/>
</svg>
