<svg width="68" height="68" viewBox="0 0 68 68" fill="none" xmlns="http://www.w3.org/2000/svg" xmlns:xlink="http://www.w3.org/1999/xlink">
<path d="M19.333,0L47.333,0C58,0 66.667,8.667 66.667,19.333L66.667,47.333C66.667,52.461 64.63,57.378 61.004,61.004C57.378,64.63 52.461,66.667 47.333,66.667L19.333,66.667C8.667,66.667 0,58 0,47.333L0,19.333C0,14.206 2.037,9.288 5.663,5.663C9.288,2.037 14.206,0 19.333,0M18.667,6.667C15.484,6.667 12.432,7.931 10.181,10.181C7.931,12.432 6.667,15.484 6.667,18.667L6.667,48C6.667,54.633 12.033,60 18.667,60L48,60C51.183,60 54.235,58.736 56.485,56.485C58.736,54.235 60,51.183 60,48L60,18.667C60,12.033 54.633,6.667 48,6.667L18.667,6.667ZM50.833,11.667C51.938,11.667 52.998,12.106 53.78,12.887C54.561,13.668 55,14.728 55,15.833C55,16.938 54.561,17.998 53.78,18.78C52.998,19.561 51.938,20 50.833,20C49.728,20 48.668,19.561 47.887,18.78C47.106,17.998 46.667,16.938 46.667,15.833C46.667,14.728 47.106,13.668 47.887,12.887C48.668,12.106 49.728,11.667 50.833,11.667ZM33.333,16.667C37.754,16.667 41.993,18.423 45.118,21.548C48.244,24.674 50,28.913 50,33.333C50,37.754 48.244,41.993 45.118,45.118C41.993,48.244 37.754,50 33.333,50C28.913,50 24.674,48.244 21.548,45.118C18.423,41.993 16.667,37.754 16.667,33.333C16.667,28.913 18.423,24.674 21.548,21.548C24.674,18.423 28.913,16.667 33.333,16.667M33.333,23.333C30.681,23.333 28.138,24.387 26.262,26.262C24.387,28.138 23.333,30.681 23.333,33.333C23.333,35.985 24.387,38.529 26.262,40.404C28.138,42.28 30.681,43.333 33.333,43.333C35.985,43.333 38.529,42.28 40.404,40.404C42.28,38.529 43.333,35.985 43.333,33.333C43.333,30.681 42.28,28.138 40.404,26.262C38.529,24.387 35.985,23.333 33.333,23.333Z" fill="url(#pf_0_15_279)"/>
<defs>
<linearGradient id="pf_0_15_279" x1="33.333" y1="0" x2="33.333" y2="66.667" gradientUnits="userSpaceOnUse">
<stop stop-color="#FDB623"/>
<stop offset="1" stop-color="#333333"/>
</linearGradient>
</defs>
</svg>
