<svg width="120" height="120" viewBox="0 0 120 120" fill="none" xmlns="http://www.w3.org/2000/svg" xmlns:xlink="http://www.w3.org/1999/xlink">
<path d="M60,0C65.508,0 70.82,0.703 75.938,2.109C81.055,3.516 85.84,5.527 90.293,8.145C94.746,10.762 98.789,13.887 102.422,17.52C106.055,21.152 109.18,25.215 111.797,29.707C114.414,34.199 116.426,38.984 117.832,44.062C119.238,49.141 119.961,54.453 120,60C120,65.508 119.297,70.82 117.891,75.938C116.484,81.055 114.473,85.84 111.855,90.293C109.238,94.746 106.113,98.789 102.48,102.422C98.848,106.055 94.785,109.18 90.293,111.797C85.801,114.414 81.016,116.426 75.938,117.832C70.859,119.238 65.547,119.961 60,120C54.492,120 49.18,119.297 44.062,117.891C38.945,116.484 34.16,114.473 29.707,111.855C25.254,109.238 21.211,106.113 17.578,102.48C13.945,98.848 10.82,94.785 8.203,90.293C5.586,85.801 3.574,81.035 2.168,75.996C0.762,70.957 0.039,65.625 0,60C0,54.492 0.703,49.18 2.109,44.062C3.516,38.945 5.527,34.16 8.145,29.707C10.762,25.254 13.887,21.211 17.52,17.578C21.152,13.945 25.215,10.82 29.707,8.203C34.199,5.586 38.965,3.574 44.004,2.168C49.043,0.762 54.375,0.039 60,0ZM60,112.5C64.805,112.5 69.434,111.875 73.887,110.625C78.34,109.375 82.52,107.617 86.426,105.352C90.332,103.086 93.887,100.332 97.09,97.09C100.293,93.848 103.027,90.312 105.293,86.484C107.559,82.656 109.336,78.477 110.625,73.945C111.914,69.414 112.539,64.766 112.5,60C112.5,55.195 111.875,50.566 110.625,46.113C109.375,41.66 107.617,37.48 105.352,33.574C103.086,29.668 100.332,26.113 97.09,22.91C93.848,19.707 90.312,16.973 86.484,14.707C82.656,12.441 78.477,10.664 73.945,9.375C69.414,8.086 64.766,7.461 60,7.5C55.195,7.5 50.566,8.125 46.113,9.375C41.66,10.625 37.48,12.383 33.574,14.648C29.668,16.914 26.113,19.668 22.91,22.91C19.707,26.152 16.973,29.688 14.707,33.516C12.441,37.344 10.664,41.523 9.375,46.055C8.086,50.586 7.461,55.234 7.5,60C7.5,64.805 8.125,69.434 9.375,73.887C10.625,78.34 12.383,82.52 14.648,86.426C16.914,90.332 19.668,93.887 22.91,97.09C26.152,100.293 29.688,103.027 33.516,105.293C37.344,107.559 41.523,109.336 46.055,110.625C50.586,111.914 55.234,112.539 60,112.5ZM94.98,60.938L97.793,52.5L102.188,52.5L97.207,67.5L92.812,67.5L90,59.062L87.188,67.5L82.793,67.5L77.812,52.5L82.207,52.5L85.02,60.938L87.832,52.5L92.168,52.5L94.98,60.938ZM67.793,52.5L72.188,52.5L67.207,67.5L62.812,67.5L60,59.062L57.188,67.5L52.793,67.5L47.812,52.5L52.207,52.5L55.02,60.938L57.832,52.5L62.168,52.5L64.98,60.938L67.793,52.5ZM37.793,52.5L42.188,52.5L37.207,67.5L32.812,67.5L30,59.062L27.188,67.5L22.793,67.5L17.813,52.5L22.207,52.5L25.02,60.938L27.832,52.5L32.168,52.5L34.98,60.938L37.793,52.5Z" fill="#FDB623"/>
</svg>
