<svg width="120" height="116" viewBox="0 0 120 116" fill="none" xmlns="http://www.w3.org/2000/svg" xmlns:xlink="http://www.w3.org/1999/xlink">
<path d="M60,25.778L60,0L0,0L0,116L120,116L120,25.778L60,25.778ZM24,103.111L12,103.111L12,90.222L24,90.222L24,103.111ZM24,77.333L12,77.333L12,64.444L24,64.444L24,77.333ZM24,51.556L12,51.556L12,38.667L24,38.667L24,51.556ZM24,25.778L12,25.778L12,12.889L24,12.889L24,25.778ZM48,103.111L36,103.111L36,90.222L48,90.222L48,103.111ZM48,77.333L36,77.333L36,64.444L48,64.444L48,77.333ZM48,51.556L36,51.556L36,38.667L48,38.667L48,51.556ZM48,25.778L36,25.778L36,12.889L48,12.889L48,25.778ZM108,103.111L60,103.111L60,90.222L72,90.222L72,77.333L60,77.333L60,64.444L72,64.444L72,51.556L60,51.556L60,38.667L108,38.667L108,103.111ZM96,51.556L84,51.556L84,64.444L96,64.444L96,51.556ZM96,77.333L84,77.333L84,90.222L96,90.222L96,77.333Z" fill="#FDB623"/>
</svg>
