<svg width="56" height="60" viewBox="0 0 56 60" fill="none" xmlns="http://www.w3.org/2000/svg" xmlns:xlink="http://www.w3.org/1999/xlink">
<path d="M42.417,-0.25L5.417,-0.25C3.781,-0.25 2.213,0.435 1.056,1.654C-0.1,2.873 -0.75,4.526 -0.75,6.25L-0.75,51.75C-0.75,53.474 -0.1,55.127 1.056,56.346C2.213,57.565 3.781,58.25 5.417,58.25L48.583,58.25C51.975,58.25 54.75,55.325 54.75,51.75L54.75,12.75L42.417,-0.25ZM27,51.75C21.882,51.75 17.75,47.395 17.75,42C17.75,36.605 21.882,32.25 27,32.25C32.118,32.25 36.25,36.605 36.25,42C36.25,47.395 32.118,51.75 27,51.75ZM36.25,19.25L5.417,19.25L5.417,6.25L36.25,6.25L36.25,19.25Z" fill="#333333"/>
</svg>
