<svg width="142" height="106" viewBox="0 0 142 106" fill="none" xmlns="http://www.w3.org/2000/svg" xmlns:xlink="http://www.w3.org/1999/xlink">
<path d="M37.571,70.771L25.146,57.365C30.964,51.233 37.794,46.376 45.635,42.793C53.473,39.205 61.928,37.412 71,37.412C80.072,37.412 88.529,39.23 96.371,42.868C104.208,46.505 111.036,51.441 116.854,57.676L104.429,70.771C100.09,66.198 95.061,62.613 89.342,60.015C83.622,57.417 77.508,56.118 71,56.118C64.492,56.118 58.378,57.417 52.658,60.015C46.939,62.613 41.91,66.198 37.571,70.771L37.571,70.771ZM12.425,44.271L0,31.176C9.072,21.408 19.673,13.77 31.802,8.262C43.931,2.754 56.997,0 71,0C85.003,0 98.069,2.754 110.198,8.262C122.327,13.77 132.928,21.408 142,31.176L129.575,44.271C121.982,36.269 113.182,30.006 103.175,25.484C93.164,20.965 82.439,18.706 71,18.706C59.561,18.706 48.836,20.965 38.825,25.484C28.818,30.006 20.018,36.269 12.425,44.271ZM71,106L91.856,83.865C89.194,81.059 86.087,78.849 82.537,77.237C78.987,75.628 75.142,74.824 71,74.824C66.858,74.824 63.013,75.628 59.462,77.237C55.912,78.849 52.806,81.059 50.144,83.865L71,106Z" fill="#FDB623"/>
</svg>
