<svg width="46" height="46" viewBox="0 0 46 46" fill="none" xmlns="http://www.w3.org/2000/svg" xmlns:xlink="http://www.w3.org/1999/xlink">
<path d="M29.5,44.5L24.5,44.5L24.5,39.5L29.5,39.5L29.5,44.5ZM24.5,27L19.5,27L19.5,39.5L24.5,39.5L24.5,27ZM44.5,22L39.5,22L39.5,32L44.5,32L44.5,22ZM39.5,17L34.5,17L34.5,22L39.5,22L39.5,17ZM9.5,22L4.5,22L4.5,27L9.5,27L9.5,22ZM4.5,17L-0.5,17L-0.5,22L4.5,22L4.5,17ZM22,4.5L27,4.5L27,-0.5L22,-0.5L22,4.5ZM3.25,3.25L3.25,10.75L10.75,10.75L10.75,3.25L3.25,3.25ZM12,14.5L2,14.5C0.625,14.5 -0.5,13.375 -0.5,12L-0.5,2C-0.5,0.625 0.625,-0.5 2,-0.5L12,-0.5C13.375,-0.5 14.5,0.625 14.5,2L14.5,12C14.5,13.375 13.375,14.5 12,14.5ZM3.25,33.25L3.25,40.75L10.75,40.75L10.75,33.25L3.25,33.25ZM12,44.5L2,44.5C0.625,44.5 -0.5,43.375 -0.5,42L-0.5,32C-0.5,30.625 0.625,29.5 2,29.5L12,29.5C13.375,29.5 14.5,30.625 14.5,32L14.5,42C14.5,43.375 13.375,44.5 12,44.5ZM33.25,3.25L33.25,10.75L40.75,10.75L40.75,3.25L33.25,3.25ZM42,14.5L32,14.5C30.625,14.5 29.5,13.375 29.5,12L29.5,2C29.5,0.625 30.625,-0.5 32,-0.5L42,-0.5C43.375,-0.5 44.5,0.625 44.5,2L44.5,12C44.5,13.375 43.375,14.5 42,14.5ZM39.5,39.5L39.5,32L29.5,32L29.5,37L34.5,37L34.5,44.5L44.5,44.5L44.5,39.5L39.5,39.5ZM34.5,22L24.5,22L24.5,27L34.5,27L34.5,22ZM24.5,17L9.5,17L9.5,22L14.5,22L14.5,27L19.5,27L19.5,22L24.5,22L24.5,17ZM27,14.5L27,9.5L22,9.5L22,4.5L17,4.5L17,14.5L27,14.5ZM8.875,5.125L5.125,5.125L5.125,8.875L8.875,8.875L8.875,5.125ZM8.875,35.125L5.125,35.125L5.125,38.875L8.875,38.875L8.875,35.125ZM38.875,5.125L35.125,5.125L35.125,8.875L38.875,8.875L38.875,5.125Z" fill="#D9D9D9"/>
</svg>
