<svg width="48" height="48" viewBox="0 0 48 48" fill="none" xmlns="http://www.w3.org/2000/svg" xmlns:xlink="http://www.w3.org/1999/xlink">
<path d="M41.872,21.487C41.883,19.278 41.433,17.09 40.547,15.045C39.662,13.001 38.358,11.141 36.71,9.572C35.062,8.003 33.103,6.756 30.944,5.901C28.786,5.046 26.469,4.601 24.128,4.59L24,4.59C21.649,4.59 19.322,5.028 17.151,5.877C14.98,6.727 13.008,7.972 11.348,9.542C9.688,11.111 8.372,12.974 7.476,15.024C6.581,17.074 6.123,19.27 6.128,21.487C6.128,28.205 4.678,31.967 3.462,33.938C3.086,34.552 2.888,35.25 2.888,35.959C2.888,36.669 3.086,37.366 3.462,37.981C3.831,38.596 4.368,39.107 5.017,39.461C5.665,39.814 6.403,39.998 7.152,39.992L14.659,39.992C14.881,42.184 15.961,44.218 17.689,45.699C19.416,47.18 21.666,48 24,48C26.334,48 28.584,47.18 30.311,45.699C32.039,44.218 33.119,42.184 33.341,39.992L40.848,39.992C41.597,39.998 42.335,39.814 42.983,39.461C43.632,39.107 44.169,38.596 44.538,37.981C44.914,37.366 45.112,36.669 45.112,35.959C45.112,35.25 44.914,34.552 44.538,33.938C43.322,31.967 41.872,28.205 41.872,21.487ZM24,43.211C23.018,43.207 22.067,42.886 21.306,42.3C20.545,41.714 20.02,40.899 19.82,39.992L28.18,39.992C27.98,40.899 27.455,41.714 26.694,42.3C25.933,42.886 24.982,43.207 24,43.211L24,43.211ZM8.559,35.165C10.756,30.84 11.247,25.429 11.247,21.487C11.244,19.891 11.576,18.31 12.224,16.836C12.871,15.362 13.822,14.024 15.021,12.898C16.201,11.789 17.602,10.91 19.143,10.313C20.683,9.716 22.334,9.412 24,9.418L24.107,9.418C27.478,9.444 30.701,10.729 33.071,12.991C35.441,15.252 36.765,18.307 36.753,21.487C36.753,25.429 37.244,30.84 39.441,35.165L8.559,35.165ZM46.564,13.702C46.215,13.876 45.827,13.966 45.433,13.964C44.958,13.961 44.492,13.834 44.089,13.596C43.686,13.358 43.361,13.019 43.151,12.616C41.403,9.275 38.709,6.456 35.367,4.47C35.079,4.302 34.829,4.083 34.631,3.824C34.433,3.565 34.292,3.271 34.215,2.96C34.139,2.649 34.128,2.327 34.185,2.012C34.241,1.697 34.363,1.396 34.543,1.126C34.724,0.856 34.959,0.623 35.236,0.439C35.513,0.256 35.826,0.126 36.156,0.057C36.487,-0.012 36.829,-0.018 37.162,0.038C37.495,0.095 37.813,0.213 38.097,0.386C42.241,2.843 45.579,6.34 47.737,10.484C47.885,10.768 47.973,11.076 47.995,11.392C48.016,11.708 47.971,12.025 47.862,12.324C47.753,12.623 47.582,12.899 47.359,13.136C47.136,13.372 46.866,13.565 46.564,13.702L46.564,13.702ZM2.567,13.964C2.173,13.966 1.785,13.876 1.436,13.702C1.134,13.565 0.864,13.372 0.641,13.136C0.418,12.899 0.247,12.623 0.138,12.324C0.029,12.025 -0.016,11.708 0.005,11.392C0.027,11.076 0.115,10.768 0.263,10.484C2.421,6.34 5.759,2.843 9.903,0.386C10.187,0.213 10.505,0.095 10.838,0.038C11.171,-0.018 11.513,-0.012 11.844,0.057C12.174,0.126 12.487,0.256 12.764,0.439C13.041,0.623 13.276,0.856 13.457,1.126C13.637,1.396 13.759,1.697 13.815,2.012C13.872,2.327 13.861,2.649 13.785,2.96C13.708,3.271 13.567,3.565 13.369,3.824C13.171,4.083 12.921,4.302 12.633,4.47C9.291,6.456 6.597,9.275 4.849,12.616C4.639,13.019 4.314,13.358 3.911,13.596C3.508,13.834 3.042,13.961 2.567,13.964L2.567,13.964Z" fill="#D9D9D9"/>
</svg>
