<svg width="120" height="90" viewBox="0 0 120 90" fill="none" xmlns="http://www.w3.org/2000/svg" xmlns:xlink="http://www.w3.org/1999/xlink">
<path d="M102,30C97,30 92.75,28.542 89.25,25.625C85.75,22.708 84,19.167 84,15C84,10.833 85.75,7.292 89.25,4.375C92.75,1.458 97,0 102,0C107,0 111.25,1.458 114.75,4.375C118.25,7.292 120,10.833 120,15C120,19.167 118.25,22.708 114.75,25.625C111.25,28.542 107,30 102,30ZM12,90C8.7,90 5.876,89.022 3.528,87.065C1.176,85.105 0,82.75 0,80L0,20C0,17.25 1.176,14.897 3.528,12.94C5.876,10.98 8.7,10 12,10L72.6,10C72.2,11.667 72,13.333 72,15C72,16.667 72.2,18.333 72.6,20C73.3,22.667 74.45,25.145 76.05,27.435C77.65,29.728 79.6,31.75 81.9,33.5L60,45L12,20L12,30L60,55L91.65,38.5C93.35,39 95.05,39.375 96.75,39.625C98.45,39.875 100.2,40 102,40C105.2,40 108.35,39.583 111.45,38.75C114.55,37.917 117.4,36.667 120,35L120,80C120,82.75 118.826,85.105 116.478,87.065C114.126,89.022 111.3,90 108,90L12,90Z" fill="#FDB623"/>
</svg>
