<svg width="120" height="120" viewBox="0 0 120 120" fill="none" xmlns="http://www.w3.org/2000/svg" xmlns:xlink="http://www.w3.org/1999/xlink">
<path d="M34.8,0L85.2,0C104.4,0 120,15.6 120,34.8L120,85.2C120,94.43 116.334,103.281 109.807,109.807C103.281,116.334 94.43,120 85.2,120L34.8,120C15.6,120 0,104.4 0,85.2L0,34.8C0,25.57 3.666,16.719 10.193,10.193C16.719,3.666 25.57,0 34.8,0M33.6,12C27.871,12 22.377,14.276 18.327,18.326C14.276,22.377 12,27.871 12,33.6L12,86.4C12,98.34 21.66,108 33.6,108L86.4,108C92.129,108 97.623,105.724 101.674,101.674C105.724,97.623 108,92.129 108,86.4L108,33.6C108,21.66 98.34,12 86.4,12L33.6,12ZM91.5,21C93.489,21 95.397,21.79 96.803,23.197C98.21,24.603 99,26.511 99,28.5C99,30.489 98.21,32.397 96.803,33.803C95.397,35.21 93.489,36 91.5,36C89.511,36 87.603,35.21 86.197,33.803C84.79,32.397 84,30.489 84,28.5C84,26.511 84.79,24.603 86.197,23.197C87.603,21.79 89.511,21 91.5,21ZM60,30C67.956,30 75.587,33.161 81.213,38.787C86.839,44.413 90,52.044 90,60C90,67.956 86.839,75.587 81.213,81.213C75.587,86.839 67.956,90 60,90C52.044,90 44.413,86.839 38.787,81.213C33.161,75.587 30,67.956 30,60C30,52.044 33.161,44.413 38.787,38.787C44.413,33.161 52.044,30 60,30M60,42C55.226,42 50.648,43.896 47.272,47.272C43.896,50.648 42,55.226 42,60C42,64.774 43.896,69.352 47.272,72.728C50.648,76.104 55.226,78 60,78C64.774,78 69.352,76.104 72.728,72.728C76.104,69.352 78,64.774 78,60C78,55.226 76.104,50.648 72.728,47.272C69.352,43.896 64.774,42 60,42Z" fill="#FDB623"/>
</svg>
