<svg width="60" height="68" viewBox="0 0 60 68" fill="none" xmlns="http://www.w3.org/2000/svg" xmlns:xlink="http://www.w3.org/1999/xlink">
<path d="M53.333,6.667L50,6.667L50,0L43.333,0L43.333,6.667L16.667,6.667L16.667,0L10,0L10,6.667L6.667,6.667C4.899,6.667 3.203,7.369 1.953,8.619C0.702,9.87 0,11.565 0,13.333L0,60C0,61.768 0.702,63.464 1.953,64.714C3.203,65.964 4.899,66.667 6.667,66.667L53.333,66.667C57,66.667 60,63.667 60,60L60,13.333C60,9.667 57,6.667 53.333,6.667ZM30,16.667C35.533,16.667 40,21.133 40,26.667C40,32.2 35.533,36.667 30,36.667C24.467,36.667 20,32.2 20,26.667C20,21.133 24.467,16.667 30,16.667ZM50,56.667L10,56.667L10,53.333C10,46.667 23.333,43 30,43C36.667,43 50,46.667 50,53.333L50,56.667Z" fill="#FDB623"/>
</svg>
