<svg width="120" height="100" viewBox="0 0 120 100" fill="none" xmlns="http://www.w3.org/2000/svg" xmlns:xlink="http://www.w3.org/1999/xlink">
<path d="M120,11.607C115.583,13.638 110.822,14.973 105.889,15.612C110.937,12.536 114.837,7.661 116.673,1.799C111.912,4.701 106.635,6.732 101.071,7.893C96.539,2.902 90.172,0 82.945,0C69.465,0 58.451,11.143 58.451,24.897C58.451,26.87 58.681,28.786 59.082,30.585C38.662,29.54 20.478,19.616 8.375,4.585C6.252,8.241 5.048,12.536 5.048,17.062C5.048,25.71 9.35,33.37 16.004,37.723C11.931,37.723 8.145,36.562 4.818,34.821L4.818,34.995C4.818,47.067 13.308,57.165 24.551,59.428C20.941,60.428 17.152,60.567 13.48,59.834C15.038,64.782 18.089,69.111 22.205,72.213C26.32,75.315 31.293,77.034 36.424,77.129C27.726,84.096 16.945,87.861 5.851,87.807C3.901,87.807 1.95,87.691 0,87.459C10.899,94.539 23.862,98.66 37.744,98.66C82.945,98.66 107.782,60.705 107.782,27.799C107.782,26.696 107.782,25.652 107.725,24.549C112.543,21.067 116.673,16.656 120,11.607L120,11.607Z" fill="#FDB623"/>
</svg>
