<svg width="68" height="68" viewBox="0 0 68 68" fill="none" xmlns="http://www.w3.org/2000/svg" xmlns:xlink="http://www.w3.org/1999/xlink">
<path d="M0.013,66.667L4.52,50.107C1.551,45.016 -0.01,39.227 0,33.333C0,14.923 14.923,0 33.333,0C51.743,0 66.667,14.923 66.667,33.333C66.667,51.743 51.743,66.667 33.333,66.667C27.443,66.676 21.656,65.117 16.567,62.15L0.013,66.667ZM21.303,17.693C20.873,17.72 20.452,17.833 20.067,18.027C19.705,18.231 19.375,18.487 19.087,18.787C18.687,19.163 18.46,19.49 18.217,19.807C16.985,21.41 16.322,23.378 16.333,25.4C16.34,27.033 16.767,28.623 17.433,30.11C18.797,33.117 21.04,36.3 24.003,39.25C24.717,39.96 25.413,40.673 26.163,41.337C29.841,44.575 34.224,46.91 38.963,48.157L40.86,48.447C41.477,48.48 42.093,48.433 42.713,48.403C43.684,48.353 44.632,48.09 45.49,47.633C45.927,47.408 46.353,47.164 46.767,46.9C46.767,46.9 46.91,46.807 47.183,46.6C47.633,46.267 47.91,46.03 48.283,45.64C48.56,45.353 48.8,45.017 48.983,44.633C49.243,44.09 49.503,43.053 49.61,42.19C49.69,41.53 49.667,41.17 49.657,40.947C49.643,40.59 49.347,40.22 49.023,40.063L47.083,39.193C47.083,39.193 44.183,37.93 42.413,37.123C42.227,37.042 42.027,36.996 41.823,36.987C41.595,36.963 41.365,36.989 41.148,37.062C40.93,37.135 40.731,37.254 40.563,37.41L40.563,37.403C40.547,37.403 40.323,37.593 37.913,40.513C37.775,40.699 37.585,40.84 37.366,40.917C37.148,40.994 36.911,41.004 36.687,40.947C36.47,40.889 36.257,40.815 36.05,40.727C35.637,40.553 35.493,40.487 35.21,40.363L35.193,40.357C33.286,39.524 31.521,38.399 29.96,37.023C29.54,36.657 29.15,36.257 28.75,35.87C27.439,34.614 26.296,33.193 25.35,31.643L25.153,31.327C25.012,31.114 24.898,30.884 24.813,30.643C24.687,30.153 25.017,29.76 25.017,29.76C25.017,29.76 25.827,28.873 26.203,28.393C26.517,27.994 26.81,27.579 27.08,27.15C27.473,26.517 27.597,25.867 27.39,25.363C26.457,23.083 25.49,20.813 24.497,18.56C24.3,18.113 23.717,17.793 23.187,17.73C23.007,17.71 22.827,17.69 22.647,17.677C22.199,17.654 21.75,17.659 21.303,17.69L21.303,17.693Z" fill="#D9D9D9"/>
</svg>
