<svg width="48" height="56" viewBox="0 0 48 56" fill="none" xmlns="http://www.w3.org/2000/svg" xmlns:xlink="http://www.w3.org/1999/xlink">
<path d="M40,39.469C37.973,39.469 36.16,40.31 34.773,41.628L15.76,29.994C15.893,29.35 16,28.705 16,28.032C16,27.359 15.893,26.715 15.76,26.07L34.56,14.549C36,15.95 37.893,16.819 40,16.819C44.427,16.819 48,13.063 48,8.41C48,3.756 44.427,0 40,0C35.573,0 32,3.756 32,8.41C32,9.082 32.107,9.727 32.24,10.372L13.44,21.893C12,20.491 10.107,19.622 8,19.622C3.573,19.622 0,23.379 0,28.032C0,32.685 3.573,36.442 8,36.442C10.107,36.442 12,35.573 13.44,34.171L32.427,45.833C32.293,46.421 32.213,47.038 32.213,47.655C32.213,52.168 35.707,55.84 40,55.84C44.293,55.84 47.787,52.168 47.787,47.655C47.787,43.141 44.293,39.469 40,39.469Z" fill="#333333"/>
</svg>
