<svg width="114" height="128" viewBox="0 0 114 128" fill="none" xmlns="http://www.w3.org/2000/svg" xmlns:xlink="http://www.w3.org/1999/xlink">
<path d="M45.917,99.111L32.458,85.654C31.192,84.387 30.558,82.857 30.558,81.062C30.558,79.268 31.192,77.738 32.458,76.471C33.725,75.204 35.256,74.571 37.05,74.571C38.844,74.571 40.375,75.204 41.642,76.471L50.35,85.179L72.358,63.172C73.625,61.905 75.156,61.272 76.95,61.272C78.744,61.272 80.275,61.905 81.542,63.172C82.808,64.438 83.442,65.969 83.442,67.763C83.442,69.557 82.808,71.088 81.542,72.355L54.783,99.111C53.622,100.272 52.144,100.853 50.35,100.853C48.556,100.853 47.078,100.272 45.917,99.111L45.917,99.111ZM12.667,126.66C9.183,126.66 6.2,125.421 3.718,122.943C1.239,120.46 0,117.477 0,113.994L0,25.332C0,21.849 1.239,18.868 3.718,16.39C6.2,13.907 9.183,12.666 12.667,12.666L19,12.666L19,6.333C19,4.539 19.606,3.033 20.818,1.818C22.034,0.606 23.539,0 25.333,0C27.128,0 28.633,0.606 29.849,1.818C31.061,3.033 31.667,4.539 31.667,6.333L31.667,12.666L82.333,12.666L82.333,6.333C82.333,4.539 82.941,3.033 84.157,1.818C85.369,0.606 86.872,0 88.667,0C90.461,0 91.964,0.606 93.176,1.818C94.392,3.033 95,4.539 95,6.333L95,12.666L101.333,12.666C104.817,12.666 107.8,13.907 110.282,16.39C112.761,18.868 114,21.849 114,25.332L114,113.994C114,117.477 112.761,120.46 110.282,122.943C107.8,125.421 104.817,126.66 101.333,126.66L12.667,126.66ZM12.667,113.994L101.333,113.994L101.333,50.664L12.667,50.664L12.667,113.994Z" fill="#FDB623"/>
</svg>
