<svg width="32" height="40" viewBox="0 0 32 40" fill="none" xmlns="http://www.w3.org/2000/svg" xmlns:xlink="http://www.w3.org/1999/xlink">
<path d="M14,30L18,30L18,18L14,18L14,30ZM16,14C16.567,14 17.042,13.808 17.426,13.424C17.809,13.041 18,12.567 18,12C18,11.433 17.809,10.958 17.426,10.574C17.042,10.191 16.567,10 16,10C15.433,10 14.959,10.191 14.576,10.574C14.192,10.958 14,11.433 14,12C14,12.567 14.192,13.041 14.576,13.424C14.959,13.808 15.433,14 16,14ZM16,40C11.367,38.833 7.542,36.175 4.526,32.024C1.509,27.875 0,23.267 0,18.2L0,6L16,0L32,6L32,18.2C32,23.267 30.492,27.875 27.476,32.024C24.459,36.175 20.633,38.833 16,40Z" fill="#FDB623"/>
</svg>
