<svg width="120" height="120" viewBox="0 0 120 120" fill="none" xmlns="http://www.w3.org/2000/svg" xmlns:xlink="http://www.w3.org/1999/xlink">
<path d="M0.024,120L8.136,90.192C2.791,81.029 -0.017,70.608 0,60C0,26.862 26.862,0 60,0C93.138,0 120,26.862 120,60C120,93.138 93.138,120 60,120C49.397,120.017 38.98,117.211 29.82,111.87L0.024,120ZM38.346,31.848C37.571,31.896 36.814,32.1 36.12,32.448C35.469,32.817 34.875,33.277 34.356,33.816C33.636,34.494 33.228,35.082 32.79,35.652C30.573,38.538 29.38,42.08 29.4,45.72C29.412,48.66 30.18,51.522 31.38,54.198C33.834,59.61 37.872,65.34 43.206,70.65C44.49,71.928 45.744,73.212 47.094,74.406C53.714,80.235 61.604,84.438 70.134,86.682L73.548,87.204C74.658,87.264 75.768,87.18 76.884,87.126C78.631,87.036 80.338,86.563 81.882,85.74C82.668,85.335 83.435,84.895 84.18,84.42C84.18,84.42 84.438,84.252 84.93,83.88C85.74,83.28 86.238,82.854 86.91,82.152C87.408,81.636 87.84,81.03 88.17,80.34C88.638,79.362 89.106,77.496 89.298,75.942C89.442,74.754 89.4,74.106 89.382,73.704C89.358,73.062 88.824,72.396 88.242,72.114L84.75,70.548C84.75,70.548 79.53,68.274 76.344,66.822C76.008,66.676 75.648,66.592 75.282,66.576C74.872,66.534 74.457,66.58 74.066,66.711C73.674,66.843 73.316,67.056 73.014,67.338L73.014,67.326C72.984,67.326 72.582,67.668 68.244,72.924C67.995,73.259 67.652,73.511 67.259,73.65C66.866,73.789 66.44,73.808 66.036,73.704C65.645,73.599 65.262,73.467 64.89,73.308C64.146,72.996 63.888,72.876 63.378,72.654L63.348,72.642C59.915,71.143 56.737,69.119 53.928,66.642C53.172,65.982 52.47,65.262 51.75,64.566C49.39,62.305 47.332,59.748 45.63,56.958L45.276,56.388C45.022,56.005 44.816,55.592 44.664,55.158C44.436,54.276 45.03,53.568 45.03,53.568C45.03,53.568 46.488,51.972 47.166,51.108C47.731,50.39 48.257,49.643 48.744,48.87C49.452,47.73 49.674,46.56 49.302,45.654C47.622,41.55 45.882,37.464 44.094,33.408C43.74,32.604 42.69,32.028 41.736,31.914C41.412,31.878 41.088,31.842 40.764,31.818C39.958,31.778 39.151,31.786 38.346,31.842L38.346,31.848Z" fill="#FDB623"/>
</svg>
